<?xml version="1.0" encoding="iso-8859-1"?>
<!-- Uploaded to: SVG Repo, www.svgrepo.com, Generator: SVG Repo Mixer Tools -->
<!DOCTYPE svg PUBLIC "-//W3C//DTD SVG 1.1//EN" "http://www.w3.org/Graphics/SVG/1.1/DTD/svg11.dtd">
<svg fill="#000000" height="800px" width="800px" version="1.1" id="Capa_1" xmlns="http://www.w3.org/2000/svg" xmlns:xlink="http://www.w3.org/1999/xlink" 
	 viewBox="0 0 378.006 378.006" xml:space="preserve">
<g>
	<path d="M366.112,34.999c-8.104-1.715-16.066,3.461-17.783,11.565l-4.25,20.06c-10.116,0.891-16.567,3.072-22.399,5.055
		c-6.371,2.166-11.404,3.876-22.674,3.876c-11.273,0-16.305-1.71-22.677-3.876c-7.546-2.565-16.099-5.472-32.329-5.472
		c-16.23,0-24.783,2.907-32.329,5.472c-6.371,2.166-11.403,3.876-22.674,3.876c-11.27,0-16.302-1.71-22.672-3.876
		c-7.546-2.565-16.098-5.473-32.328-5.473c-16.231,0-24.783,2.907-32.329,5.473c-6.37,2.165-11.401,3.876-22.67,3.876
		c-11.27,0-16.302-1.71-22.672-3.876c-5.832-1.983-12.283-4.164-22.398-5.055l-4.25-20.06c-1.717-8.105-9.681-13.282-17.783-11.565
		C3.79,36.716-1.388,44.678,0.329,52.782l50,236c1.469,6.932,7.588,11.891,14.674,11.891h248c7.086,0,13.206-4.959,14.674-11.891
		l50-236C379.394,44.678,374.216,36.716,366.112,34.999z M300.848,270.673H77.158L40.608,98.157
		c2.052,0.565,3.987,1.221,6.061,1.926c7.546,2.565,16.098,5.473,32.328,5.473c16.229,0,24.781-2.907,32.326-5.472
		c6.371-2.166,11.402-3.877,22.673-3.877c11.27,0,16.302,1.711,22.672,3.876c7.546,2.565,16.098,5.473,32.328,5.473
		c16.231,0,24.784-2.907,32.33-5.473c6.371-2.165,11.403-3.876,22.673-3.876c11.271,0,16.303,1.711,22.674,3.876
		c7.546,2.565,16.1,5.473,32.332,5.473c16.231,0,24.784-2.907,32.329-5.472c2.075-0.706,4.011-1.361,6.064-1.926L300.848,270.673z"
		/>
	<path d="M175.191,181.539c7.625-6.127,11.787-15.089,11.787-26.014v-2.1c0-23.235-17.075-38.249-43.5-38.249
		c-28.05,0-43.498,15.714-43.498,44.249v3.75c0,4.142,3.358,7.5,7.5,7.5h6c4.142,0,7.5-3.358,7.5-7.5
		c0-22.832,7.974-27.298,21.748-27.298h1.5c13.431,0,21.449,6.841,21.449,18.299v1.05c0,13.141-11.093,15.899-20.398,15.899H128.48
		c-4.142,0-7.5,3.358-7.5,7.5v5.7c0,4.142,3.358,7.5,7.5,7.5h17.549c6.133,0,20.398,1.739,20.398,17.849v2.249
		c0,16.703-18.492,17.549-22.199,17.549h-1.5c-9.658,0-22.498-2.674-22.498-25.799c0-4.142-3.358-7.5-7.5-7.5h-6
		c-4.142,0-7.5,3.358-7.5,7.5v1.5c0,28.597,16.128,44.999,44.248,44.999c26.054,0,44.25-15.852,44.25-38.549v-2.25
		C187.728,197.653,183.295,188.048,175.191,181.539z"/>
	<path d="M236.478,115.176c-26.881,0-42.299,15.581-42.299,42.749v49.498c0,27.167,15.417,42.749,42.299,42.749
		c26.881,0,42.299-15.581,42.299-42.749v-49.498C278.776,130.757,263.359,115.176,236.478,115.176z M236.927,229.471h-0.9
		c-14.98,0-20.549-6.382-20.549-23.549v-46.498c0-17.166,5.569-23.549,20.549-23.549h0.9c14.979,0,20.549,6.382,20.549,23.549
		v46.498C257.476,223.089,251.906,229.471,236.927,229.471z"/>
	<path d="M222.001,313.336h-65.996c-8.284,0-15,6.716-15,15c0,8.284,6.716,15,15,15h65.996c8.284,0,15-6.716,15-15
		C237.001,320.051,230.285,313.336,222.001,313.336z"/>
</g>
</svg>