<?xml version="1.0" encoding="iso-8859-1"?>
<!-- Uploaded to: SVG Repo, www.svgrepo.com, Generator: SVG Repo Mixer Tools -->
<!DOCTYPE svg PUBLIC "-//W3C//DTD SVG 1.1//EN" "http://www.w3.org/Graphics/SVG/1.1/DTD/svg11.dtd">
<svg fill="#000000" height="800px" width="800px" version="1.1" id="Capa_1" xmlns="http://www.w3.org/2000/svg" xmlns:xlink="http://www.w3.org/1999/xlink" 
	 viewBox="0 0 390 390" xml:space="preserve">
<path d="M390,102.625V15c0-8.284-6.716-15-15-15H15C6.716,0,0,6.716,0,15v87.625c0,0.005,0,0.01,0,0.014V375c0,8.284,6.716,15,15,15
	h360c8.284,0,15-6.716,15-15V102.639C390,102.635,390,102.63,390,102.625z M360,30v66.838c-30.995,33.093-94.877,54.25-165,54.25
	S60.995,129.931,30,96.838V30H360z M30,360V136.207c14.535,10.285,31.961,19.173,51.709,26.284
	c33.788,12.166,72.964,18.597,113.291,18.597s79.503-6.431,113.291-18.597c19.748-7.111,37.174-15.999,51.709-26.284V360H30z"/>
</svg>