<?xml version="1.0" encoding="utf-8"?>
<!-- Generator: Adobe Illustrator 26.0.3, SVG Export Plug-In . SVG Version: 6.00 Build 0)  -->
<svg version="1.0" id="katman_1" xmlns="http://www.w3.org/2000/svg" xmlns:xlink="http://www.w3.org/1999/xlink" x="0px" y="0px"
	 viewBox="0 0 366.5 255.9" style="enable-background:new 0 0 366.5 255.9;" xml:space="preserve">
<style type="text/css">
	.st0{fill:#76B840;}
</style>
<path class="st0" d="M204.1,148.1h1.6v-14.4h-1.6V148.1z M209,148.1h1.5v-7.3c0-1.5,0.9-2.3,2.2-2.3c1,0,1.5,0.6,1.5,1.7v7.9h1.5
	v-7.8c0-2.2-0.6-3.2-2.6-3.2c-1.3,0-2.2,0.5-2.7,1.6v-1.3H209V148.1z M218.7,148.1h1.5v-10.8h-1.5V148.1z M218.7,135.7h1.5v-2h-1.5
	V135.7z M225,145.9v-7.3h1.7v-1.2H225v-2.9h-1.5v2.9H222v1.2h1.5v8c0,1.1,0.7,1.7,2.1,1.7c0.2,0,0.6,0,1.1,0v-1.4
	c-0.1,0-0.2,0-0.3,0C225.3,147,225,146.8,225,145.9 M228.7,148.1h1.6v-10.8h-1.6V148.1z M228.7,135.7h1.6v-2h-1.6V135.7z
	 M240.3,148.1V147c-0.1,0-0.2,0-0.2,0c-0.4,0-0.6-0.2-0.6-0.8v-6.3c0-2-0.9-2.9-2.9-2.9c-2.2,0-3.1,1-3.2,3.2h1.4V140
	c0-1.2,0.5-1.7,1.6-1.7s1.6,0.4,1.6,1.3v1c0,0.7-0.4,0.9-1.7,1.3c-2.2,0.7-3.2,1.3-3.2,3.5c0,1.9,0.9,3,2.5,3c1.2,0,2.1-0.6,2.5-1.7
	c0,1,0.6,1.5,1.4,1.5C239.7,148.2,240,148.2,240.3,148.1 M237.9,142.3v2.1c0,1.6-0.8,2.6-2.1,2.6c-0.9,0-1.4-0.6-1.4-1.7
	c0-1.4,0.5-1.8,1.7-2.2C237,142.9,237.6,142.7,237.9,142.3 M244.3,145.9v-7.3h1.7v-1.2h-1.7v-2.9h-1.5v2.9h-1.5v1.2h1.5v8
	c0,1.1,0.7,1.7,2.1,1.7c0.2,0,0.6,0,1.1,0v-1.4c-0.1,0-0.2,0-0.3,0C244.6,147,244.3,146.8,244.3,145.9 M248.1,148.1h1.6v-10.8h-1.6
	V148.1z M248.1,135.7h1.6v-2h-1.6V135.7z M254.7,148.1h1.6l3-10.7h-1.6l-2.2,8.4l-2.1-8.4h-1.6L254.7,148.1z M266.5,144.5
	L266.5,144.5c0,1.7-0.7,2.7-1.7,2.7c-1.4,0-2-1.3-2-3.9v-0.5h5.2c0-0.3,0-0.6,0-0.9c0-3.2-1.1-4.8-3.3-4.8c-2.4,0-3.4,1.9-3.4,5.8
	c0,3.7,1.1,5.5,3.4,5.5c2.1,0,3.3-1.4,3.3-3.9C268,144.5,266.5,144.5,266.5,144.5z M262.8,141.6c0-2.2,0.6-3.3,1.9-3.3
	c1.1,0,1.7,1,1.7,3v0.3H262.8z"/>
<path class="st0" d="M211.4,123.2v0.2c0,2.5-0.9,3.9-2.5,3.9c-2.1,0-2.8-1.9-2.8-6c0-4.2,0.7-6.2,2.8-6.2c1.6,0,2.6,1.1,2.6,3.2h1.5
	v-0.2c0-2.8-1.5-4.4-4.1-4.4c-3.2,0-4.5,2.4-4.5,7.6c0,5,1.4,7.5,4.4,7.5c2.8,0,4.3-1.9,4.3-5.6H211.4z M217.4,123.1
	c0-2.9,0.5-4.4,2.2-4.4c1.6,0,2.2,1.4,2.2,4.4s-0.5,4.4-2.2,4.4S217.4,126.1,217.4,123.1 M215.8,123.1c0,3.9,1.1,5.7,3.8,5.7
	c2.6,0,3.8-1.8,3.8-5.7c0-3.8-1.2-5.7-3.8-5.7C216.9,117.4,215.8,119.3,215.8,123.1 M227.8,126.2v-7.3h1.7v-1.2h-1.7v-2.8h-1.5v2.9
	h-1.5v1.2h1.5v8c0,1.1,0.7,1.7,2.1,1.7c0.2,0,0.6,0,1.1,0v-1.3c-0.1,0-0.3,0-0.3,0C228.1,127.3,227.8,127.2,227.8,126.2
	 M233.2,126.2v-7.3h1.7v-1.2h-1.7v-2.8h-1.5v2.9h-1.5v1.2h1.5v8c0,1.1,0.7,1.7,2.1,1.7c0.2,0,0.6,0,1.1,0v-1.3c-0.1,0-0.2,0-0.3,0
	C233.5,127.3,233.2,127.2,233.2,126.2 M238.3,123.1c0-2.9,0.5-4.4,2.2-4.4c1.6,0,2.2,1.4,2.2,4.4s-0.5,4.4-2.2,4.4
	S238.3,126.1,238.3,123.1 M236.7,123.1c0,3.9,1.1,5.7,3.8,5.7c2.6,0,3.8-1.8,3.8-5.7c0-3.8-1.2-5.7-3.8-5.7S236.7,119.3,236.7,123.1
	 M247,128.5h1.5v-7.3c0-1.5,0.9-2.3,2.2-2.3c1,0,1.5,0.6,1.5,1.7v7.9h1.5v-7.8c0-2.2-0.6-3.2-2.6-3.2c-1.3,0-2.2,0.5-2.7,1.6v-1.3
	H247V128.5z"/>
<path class="st0" d="M204.3,108.8h3.9c2.6,0,4.1-1.5,4.1-4.1c0-2-0.8-3.2-2.4-3.5c1.3-0.4,2-1.4,2-3.1c0-2.5-1.2-3.6-3.8-3.6h-3.7
	v14.3H204.3z M205.8,107.4v-5.5h1.8c2.2,0,3,0.8,3,2.9c0,1.9-0.8,2.6-2.8,2.6H205.8z M205.8,100.5v-4.8h1.6c2,0,2.8,0.5,2.8,2.4
	c0,1.9-0.8,2.5-2.7,2.5L205.8,100.5L205.8,100.5z M220.1,105.1L220.1,105.1c0,1.7-0.7,2.7-1.7,2.7c-1.4,0-1.9-1.3-1.9-3.9v-0.5h5.2
	c0-0.3,0-0.6,0-0.9c0-3.2-1.1-4.8-3.3-4.8c-2.4,0-3.4,1.9-3.4,5.8c0,3.7,1,5.5,3.4,5.5c2.1,0,3.3-1.4,3.3-3.9
	C221.7,105.1,220.1,105.1,220.1,105.1z M216.5,102.2c0-2.2,0.6-3.3,1.9-3.3c1.1,0,1.7,1,1.7,3v0.3H216.5z M226.1,106.6v-7.3h1.7
	v-1.2h-1.7v-2.9h-1.5v2.9h-1.5v1.2h1.5v8c0,1.1,0.7,1.7,2.1,1.7c0.2,0,0.6,0,1.1,0v-1.3c-0.1,0-0.3,0-0.3,0
	C226.4,107.6,226.1,107.5,226.1,106.6 M231.6,106.6v-7.3h1.7v-1.2h-1.7v-2.9h-1.5v2.9h-1.5v1.2h1.5v8c0,1.1,0.7,1.7,2.1,1.7
	c0.2,0,0.6,0,1.1,0v-1.3c-0.1,0-0.2,0-0.3,0C231.9,107.6,231.6,107.5,231.6,106.6 M240.2,105.1L240.2,105.1c0,1.7-0.7,2.7-1.7,2.7
	c-1.4,0-2-1.3-2-3.9v-0.5h5.2c0-0.3,0-0.6,0-0.9c0-3.2-1-4.8-3.3-4.8c-2.4,0-3.4,1.9-3.4,5.8c0,3.7,1.1,5.5,3.4,5.5
	c2.1,0,3.3-1.4,3.3-3.9C241.7,105.1,240.2,105.1,240.2,105.1z M236.6,102.2c0-2.2,0.6-3.3,1.9-3.3c1.1,0,1.7,1,1.7,3v0.3H236.6z
	 M244.5,108.8h1.5v-6.6c0-1.9,0.9-2.9,2.4-2.9c0.2,0,0.4,0,0.6,0.1v-1.6c-0.2,0-0.4,0-0.7,0c-1.1,0-2,0.7-2.5,2V98h-1.3V108.8z"/>
<path class="st0" d="M189,153.2h77.3c8.3,0,11.1-5.4,11.9-10c0.2-1.1,0.2-1.8,0.2-1.8V101c0-8.1-5.5-10.8-10.2-11.6
	c-1.1-0.2-1.9-0.2-1.9-0.2H189l7.9,30.4c0.1,0.5,0.2,1,0.2,1.5s-0.1,1-0.2,1.4L189,153.2z M266.4,155.4h-80.2l8.7-33.4
	c0.1-0.3,0.1-0.5,0.1-0.9c0-0.5-0.1-0.9-0.1-0.9L186.3,87h80.2c0.4,0,3.7,0.1,7.1,1.7c3.3,1.6,7.2,5,7.2,12.3v40.4
	c0,0.4-0.1,3.7-1.8,6.9C277.2,151.5,273.7,155.4,266.4,155.4"/>
<polygon class="st0" points="282.3,93.5 282.3,87.8 280.1,87.8 280.1,87 285.3,87 285.3,87.8 283.1,87.8 283.1,93.5 "/>
<path class="st0" d="M286.1,93.5V87h1.3l1.5,4.6c0.1,0.4,0.2,0.8,0.3,1c0.1-0.2,0.2-0.6,0.3-1l1.6-4.5h1.2v6.5h-0.8v-5.4l-1.9,5.4
	h-0.8l-1.9-5.5v5.5L286.1,93.5L286.1,93.5z"/>
<path class="st0" d="M178.3,87.8c-0.2-0.4-0.6-0.7-1.2-0.7h-13.6c0,0-0.3,0-0.7,0.2c-0.3,0.2-0.7,0.6-0.7,1.2V154c0,0,0,0.3,0.2,0.7
	c0.2,0.3,0.6,0.7,1.2,0.7l0,0h13.6c0,0,0.3,0,0.7-0.2s0.7-0.6,0.7-1.2V88.4C178.5,88.4,178.5,88.1,178.3,87.8 M157.3,128.9
	c-0.2-0.2-0.6-0.4-1.2-0.4h-14.3c-0.1,0-0.1,0-0.2,0.1c-0.1,0-0.1,0.1-0.1,0.2v3c0,4.2-0.3,7.2-1.2,9.1c-0.9,1.9-2.3,2.7-4.9,2.7
	c-3.2,0-4.7-1.6-5.5-5.2c-0.8-3.6-0.8-9.3-0.8-17.1V120c0-7.4,0-12.7,0.9-16.1c0.9-3.4,2.3-4.8,5.5-4.9c2.4,0,3.9,0.9,4.8,2.7
	c1,1.8,1.4,4.6,1.4,8.3c0,0,0,0.3,0.2,0.7c0.2,0.3,0.6,0.7,1.2,0.7h14.1c0.1,0,0.1,0,0.2-0.1c0,0,0.1-0.1,0.1-0.2v-0.6
	c0-8.2-1.8-14.3-5.6-18.5c-3.7-4.2-9.3-6.2-16.7-6.2c-8.6,0-14.9,3-18.7,8.9c-3.4,5.2-3.8,13.9-3.8,26.6s0.4,21.4,3.8,26.6
	c3.9,6,10.2,8.9,18.9,8.9l0,0c7.5,0,13.1-2,16.7-6.1c3.7-4.1,5.4-10.2,5.4-18.4c0-1.2,0-2.2,0-2.8
	C157.6,129.3,157.5,129.1,157.3,128.9 M100.8,119.2c0,0-0.1-0.1-0.2-0.1c-0.1-0.2-0.1-0.3-0.1-0.4s0-0.2,0.3-0.4
	c4.3-3.6,6.5-8,6.5-14c0-6.6-2.6-11.6-7.5-14.6C95.3,87,89.8,87,82.7,87h-19c0,0-0.2,0-0.3,0.1c-0.1,0.1,0,0.2,0,0.3l7.5,32.6
	c0,0,0.1,0.5,0.1,1.1c0,0.3,0,0.7-0.1,1c0,0-7.5,32.8-7.6,32.9c0,0.1,0,0.2,0,0.3c0.1,0.1,0.2,0.1,0.3,0.1h20.9
	c8.4,0,14.3-0.5,18.7-5.1c3.7-3.8,5.9-9.4,5.9-15.7C109.1,127.1,105.9,121.7,100.8,119.2 M81.7,99.6c0,0,0-0.3,0-0.6
	c0-0.1,0-0.3,0.1-0.4l0,0c0.3,0,0.8,0,1.3,0c5.4,0,8.2,2.6,8.2,7.1c0,5.5-2.8,7.7-8.9,7.8h-0.7V99.6z M82.8,142.9h-1.1v-16.2
	c0,0,0-0.3,0-0.6c0-0.1,0-0.3,0-0.3h0.8c7,0,10,2.4,10,8C92.5,139.9,89.4,142.8,82.8,142.9"/>
<path class="st0" d="M73,181.8c1.9,0,3.3-0.6,4.1-1.6c0.5-0.7,0.8-1.5,0.8-2.5c0-1.7-0.7-2.8-2.2-3.4c-0.8-0.3-1.8-0.5-3.2-0.5h-6.2
	v8H73z M71.9,171.2c1.3,0,2.3-0.2,3.1-0.5c1.1-0.6,1.7-1.6,1.7-3.1s-0.6-2.5-1.8-3c-0.7-0.3-1.7-0.4-3.1-0.4h-5.6v7.1h5.7V171.2z
	 M63.2,161.6h9.9c2.7,0,4.6,0.8,5.7,2.4c0.7,0.9,1,2,1,3.3c0,1.4-0.4,2.6-1.2,3.5c-0.4,0.5-1,0.9-1.8,1.3c1.2,0.4,2,0.9,2.6,1.5
	c1,1,1.5,2.4,1.5,4.1c0,1.5-0.5,2.8-1.4,4c-1.4,1.8-3.6,2.7-6.6,2.7h-9.7C63.2,184.4,63.2,161.6,63.2,161.6z"/>
<path class="st0" d="M95.4,174.7c-0.1-1.2-0.4-2.2-0.8-2.9c-0.8-1.3-2-2-3.8-2c-1.3,0-2.3,0.5-3.2,1.4c-0.9,0.9-1.3,2.1-1.4,3.5
	H95.4z M94.4,168.2c1.1,0.6,1.9,1.3,2.5,2.2c0.6,0.8,0.9,1.8,1.1,2.9c0.2,0.8,0.2,2,0.2,3.7h-12c0,1.7,0.4,3.1,1.2,4.1
	c0.7,1,1.9,1.5,3.4,1.5s2.6-0.5,3.5-1.5c0.5-0.6,0.8-1.2,1-2H98c-0.1,0.6-0.3,1.3-0.7,2c-0.4,0.8-0.9,1.4-1.4,1.8
	c-0.8,0.8-1.9,1.4-3.1,1.7c-0.7,0.2-1.4,0.3-2.3,0.3c-2.1,0-3.8-0.8-5.2-2.3s-2.1-3.6-2.1-6.3s0.7-4.8,2.2-6.5
	c1.4-1.7,3.3-2.5,5.7-2.5C92.2,167.4,93.3,167.6,94.4,168.2"/>
<path class="st0" d="M102.4,163.1h2.8v4.7h2.7v2.3h-2.7v10.8c0,0.6,0.2,1,0.6,1.2c0.2,0.1,0.6,0.2,1.1,0.2c0.1,0,0.3,0,0.4,0
	c0.2,0,0.3,0,0.5-0.1v2.2c-0.3,0.1-0.7,0.2-1,0.2s-0.7,0.1-1.1,0.1c-1.3,0-2.2-0.3-2.7-1s-0.7-1.5-0.7-2.6v-11H100v-2.3h2.3
	L102.4,163.1L102.4,163.1z"/>
<path class="st0" d="M111.3,163.1h2.8v4.7h2.7v2.3h-2.7v10.8c0,0.6,0.2,1,0.6,1.2c0.2,0.1,0.6,0.2,1.1,0.2c0.1,0,0.3,0,0.4,0
	c0.2,0,0.3,0,0.5-0.1v2.2c-0.3,0.1-0.7,0.2-1,0.2s-0.7,0.1-1.1,0.1c-1.3,0-2.2-0.3-2.7-1s-0.7-1.5-0.7-2.6v-11h-2.3v-2.3h2.3
	L111.3,163.1L111.3,163.1z"/>
<path class="st0" d="M130.9,174.7c-0.1-1.2-0.4-2.2-0.8-2.9c-0.8-1.3-2-2-3.8-2c-1.3,0-2.3,0.5-3.2,1.4c-0.9,0.9-1.3,2.1-1.4,3.5
	H130.9z M129.8,168.2c1.1,0.6,1.9,1.3,2.5,2.2c0.6,0.8,0.9,1.8,1.1,2.9c0.2,0.8,0.2,2,0.2,3.7h-12c0.1,1.7,0.4,3.1,1.2,4.1
	c0.7,1,1.9,1.5,3.4,1.5c1.4,0,2.6-0.5,3.5-1.5c0.5-0.6,0.8-1.2,1-2h2.8c-0.1,0.6-0.3,1.3-0.7,2c-0.4,0.8-0.9,1.4-1.4,1.8
	c-0.8,0.8-1.9,1.4-3.1,1.7c-0.7,0.2-1.4,0.3-2.3,0.3c-2.1,0-3.8-0.8-5.2-2.3c-1.4-1.5-2.1-3.6-2.1-6.3s0.7-4.8,2.2-6.5
	c1.4-1.7,3.3-2.5,5.7-2.5C127.6,167.4,128.7,167.6,129.8,168.2"/>
<path class="st0" d="M137.4,167.7h2.7v2.9c0.2-0.6,0.8-1.2,1.6-2c0.9-0.8,1.8-1.2,2.9-1.2c0.1,0,0.1,0,0.3,0c0.1,0,0.3,0,0.6,0.1v3
	c-0.2,0-0.3-0.1-0.5-0.1c-0.1,0-0.3,0-0.5,0c-1.4,0-2.5,0.5-3.2,1.4c-0.8,0.9-1.1,2-1.1,3.1v9.6h-2.8V167.7z"/>
<path class="st0" d="M164.4,163.2c1.6,1.5,2.5,3.3,2.6,5.2h-3c-0.3-1.5-1-2.6-2-3.5s-2.4-1.3-4.2-1.3c-2.2,0-4,0.8-5.4,2.4
	c-1.4,1.6-2,4-2,7.3c0,2.7,0.6,4.9,1.8,6.5c1.2,1.7,3.1,2.5,5.5,2.5c2.2,0,3.9-0.9,5.1-2.6c0.6-0.9,1.1-2.1,1.4-3.6h3
	c-0.3,2.4-1.2,4.4-2.6,6.1c-1.8,2-4.2,2.9-7.3,2.9c-2.6,0-4.8-0.8-6.6-2.4c-2.3-2.1-3.5-5.4-3.5-9.8c0-3.4,0.9-6.1,2.6-8.3
	c1.9-2.3,4.5-3.5,7.9-3.5C160.6,160.9,162.8,161.7,164.4,163.2"/>
<path class="st0" d="M181.2,180.5c0.7-1.4,1-3,1-4.7c0-1.6-0.2-2.8-0.7-3.8c-0.8-1.5-2.1-2.3-4-2.3c-1.7,0-2.9,0.7-3.7,2
	s-1.2,2.9-1.2,4.7s0.4,3.2,1.2,4.4s2,1.8,3.7,1.8C179.3,182.6,180.5,181.9,181.2,180.5 M183,169.4c1.5,1.4,2.2,3.5,2.2,6.3
	c0,2.7-0.6,4.9-1.9,6.7c-1.3,1.8-3.3,2.6-6,2.6c-2.3,0-4.1-0.8-5.4-2.3c-1.3-1.5-2-3.6-2-6.2c0-2.8,0.7-5,2.1-6.7
	c1.4-1.7,3.3-2.5,5.7-2.5C179.7,167.3,181.5,168,183,169.4"/>
<path class="st0" d="M189.2,163.1h2.8v4.7h2.7v2.3H192v10.8c0,0.6,0.2,1,0.6,1.2c0.2,0.1,0.6,0.2,1.1,0.2c0.1,0,0.3,0,0.4,0
	c0.2,0,0.3,0,0.5-0.1v2.2c-0.3,0.1-0.7,0.2-1,0.2s-0.7,0.1-1.1,0.1c-1.3,0-2.2-0.3-2.7-1s-0.7-1.5-0.7-2.6v-11h-2.3v-2.3h2.3
	L189.2,163.1L189.2,163.1z"/>
<path class="st0" d="M198,163.1h2.8v4.7h2.7v2.3h-2.7v10.8c0,0.6,0.2,1,0.6,1.2c0.2,0.1,0.6,0.2,1.1,0.2c0.1,0,0.3,0,0.4,0
	c0.2,0,0.3,0,0.5-0.1v2.2c-0.3,0.1-0.7,0.2-1,0.2s-0.7,0.1-1.1,0.1c-1.3,0-2.2-0.3-2.7-1s-0.7-1.5-0.7-2.6v-11h-2.3v-2.3h2.3
	L198,163.1L198,163.1z"/>
<path class="st0" d="M216.6,180.5c0.7-1.4,1-3,1-4.7c0-1.6-0.2-2.8-0.7-3.8c-0.8-1.5-2.1-2.3-4-2.3c-1.7,0-2.9,0.7-3.7,2
	s-1.2,2.9-1.2,4.7s0.4,3.2,1.2,4.4s2,1.8,3.7,1.8C214.7,182.6,215.9,181.9,216.6,180.5 M218.4,169.4c1.5,1.4,2.2,3.5,2.2,6.3
	c0,2.7-0.6,4.9-1.9,6.7c-1.3,1.8-3.3,2.6-6,2.6c-2.3,0-4.1-0.8-5.4-2.3c-1.3-1.5-2-3.6-2-6.2c0-2.8,0.7-5,2.1-6.7
	c1.4-1.7,3.3-2.5,5.7-2.5C215.1,167.3,216.9,168,218.4,169.4"/>
<path class="st0" d="M224,167.7h2.7v2.4c0.8-1,1.6-1.7,2.5-2.1s1.9-0.6,2.9-0.6c2.4,0,4,0.8,4.8,2.5c0.5,0.9,0.7,2.2,0.7,3.9v10.7
	h-2.8v-10.6c0-1-0.2-1.8-0.4-2.5c-0.5-1-1.4-1.6-2.7-1.6c-0.7,0-1.2,0.1-1.6,0.2c-0.8,0.2-1.4,0.7-2,1.4c-0.5,0.6-0.8,1.1-0.9,1.7
	c-0.1,0.6-0.2,1.4-0.2,2.5v8.7h-2.8v-16.6H224z"/>
<rect x="242.4" y="181" class="st0" width="3.3" height="3.4"/>
<path class="st0" d="M260.9,180.5c0.7-1.4,1-3,1-4.7c0-1.6-0.2-2.8-0.7-3.8c-0.8-1.5-2.1-2.3-4-2.3c-1.7,0-2.9,0.7-3.7,2
	s-1.2,2.9-1.2,4.7s0.4,3.2,1.2,4.4s2,1.8,3.7,1.8C259,182.6,260.2,181.9,260.9,180.5 M262.6,169.4c1.5,1.4,2.2,3.5,2.2,6.3
	c0,2.7-0.6,4.9-1.9,6.7c-1.3,1.8-3.3,2.6-6,2.6c-2.3,0-4.1-0.8-5.4-2.3c-1.3-1.5-2-3.6-2-6.2c0-2.8,0.7-5,2.1-6.7
	c1.4-1.7,3.3-2.5,5.7-2.5C259.4,167.3,261.2,168,262.6,169.4"/>
<path class="st0" d="M268.4,167.7h2.7v2.9c0.2-0.6,0.8-1.2,1.6-2c0.9-0.8,1.8-1.2,2.9-1.2c0,0,0.1,0,0.3,0c0.1,0,0.3,0,0.6,0.1v3
	c-0.2,0-0.3-0.1-0.5-0.1c-0.1,0-0.3,0-0.5,0c-1.4,0-2.5,0.5-3.3,1.4c-0.8,0.9-1.1,2-1.1,3.1v9.6h-2.8v-16.8H268.4z"/>
<path class="st0" d="M288.5,171.4c-0.8-1-1.9-1.5-3.2-1.5c-2,0-3.3,0.9-4,2.8c-0.4,1-0.6,2.3-0.6,3.9c0,1.9,0.4,3.3,1.1,4.3
	c0.8,1,1.8,1.5,3.1,1.5c2,0,3.4-0.9,4.2-2.7c0.5-1,0.7-2.2,0.7-3.6C289.8,173.9,289.3,172.4,288.5,171.4 M288.2,168.4
	c0.5,0.4,1.1,0.9,1.6,1.6v-2.1h2.6V183c0,2.1-0.3,3.8-0.9,5c-1.2,2.3-3.3,3.4-6.6,3.4c-1.8,0-3.3-0.4-4.5-1.2
	c-1.2-0.8-1.9-2.1-2-3.8h2.8c0.1,0.7,0.4,1.3,0.8,1.7c0.6,0.6,1.6,0.9,3,0.9c2.1,0,3.5-0.8,4.2-2.3c0.4-0.9,0.6-2.5,0.5-4.8
	c-0.6,0.9-1.2,1.5-2,1.9s-1.8,0.6-3.1,0.6c-1.8,0-3.4-0.6-4.7-1.9c-1.3-1.3-2-3.4-2-6.4c0-2.8,0.7-5,2-6.5c1.4-1.6,3-2.3,4.9-2.3
	C286,167.4,287.2,167.8,288.2,168.4"/>
</svg>
