<?xml version="1.0" encoding="utf-8"?>
<!-- Generator: Adobe Illustrator 19.2.1, SVG Export Plug-In . SVG Version: 6.00 Build 0)  -->
<svg version="1.1" id="layer" xmlns="http://www.w3.org/2000/svg" xmlns:xlink="http://www.w3.org/1999/xlink" x="0px" y="0px"
	 viewBox="0 0 652 652" style="enable-background:new 0 0 652 652;" xml:space="preserve">
<style type="text/css">
	.st0{fill:#0B2B75;}
	.st1{fill:#FFFFFF;}
</style>
<rect x="20.4" y="176.6" class="st0" width="290.5" height="290.5"/>
<g>
	<path class="st1" d="M65.4,433.6c-3.9,0-7.1-2.6-8.1-6.3c-0.2-0.6-0.2-1.3-0.2-2v-5.3c0-0.9,0.1-1.6,0.3-2.3
		c1.1-4.1,4.5-6.6,8.2-6.6c5.8,0,8.9,5.1,8.9,11.1C74.4,429.1,71.1,433.6,65.4,433.6 M67.3,406.9c-4.8,0-8.2,2.1-10.1,5.4H57v-18.7
		h-0.1l0.1-0.1H46.8v3.3l4.8,0.4l0,0c0,0,0,34.9-0.1,36.2h0l-4.8,0.4v3.3H56h0.1l0.3-4.9h0.1c2.3,3.9,5.7,5.5,10,5.5
		c6.6,0,13.4-5.3,13.4-15.9C79.9,413.1,74.7,406.9,67.3,406.9"/>
	<polygon class="st1" points="93.7,393.7 93.7,393.7 83.6,393.7 83.6,397 88.3,397.4 88.3,433.5 88.3,433.5 83.5,433.9 83.5,437.3 
		98.5,437.3 98.5,433.9 93.7,433.5 	"/>
	<path class="st1" d="M159.1,419.5h-15.8c0.4-3.7,2.8-8.7,8.3-8.7C157.6,410.8,159.1,416.1,159.1,419.5 M152,406.9
		c-8.7,0-14,7-14,16c0,9,5.5,15.1,14.6,15.1c4.7,0,8.1-1,9.9-1.9l-1-3.9c-2,0.9-4.4,1.5-8.2,1.5c-5.5,0-10.1-3-10.2-10.3h20.9
		c0.1-0.6,0.2-1.4,0.2-2.5C164.3,415.4,161.7,406.9,152,406.9"/>
	<path class="st1" d="M181.4,420.1c-3.9-1.5-5.6-2.6-5.6-5.1c0-2.2,1.7-4.1,4.9-4.1c2.8,0,4.9,1,6.1,1.8l1.3-3.9
		c-1.6-1-4.2-1.8-7.3-1.8c-6.3,0-10.3,3.9-10.3,8.7c0,3.6,2.5,6.5,7.9,8.4c3.9,1.5,5.5,2.8,5.5,5.4c0,2.5-1.8,4.4-5.7,4.4
		c-2.7,0-5.5-1.1-7.2-2.1l-1.3,4.1c2.1,1.2,5.1,2.1,8.4,2.1c6.9,0,11.1-3.7,11.1-9C189.2,424.6,186.5,422,181.4,420.1"/>
	<path class="st1" d="M200.8,395.8c-2,0-3.4,1.5-3.4,3.4s1.3,3.3,3.3,3.3c2.2,0,3.4-1.5,3.4-3.3
		C204.2,397.3,202.8,395.8,200.8,395.8"/>
	<path class="st1" d="M232.9,424.6c0,0.9-0.1,2-0.4,2.9c-1.1,3.4-4.1,5.5-7.5,5.5c-5.8,0-8.8-4.9-8.8-10.7c0-6.9,3.7-11.2,8.8-11.2
		c4,0,6.6,2.6,7.6,5.8c0.2,0.7,0.3,1.5,0.3,2.4V424.6z M233.5,412h-0.1c-1.4-2.5-4.1-5.1-9.3-5.1c-6.9,0-13.5,5.7-13.5,15.7
		c0,8.2,5.3,14.5,12.7,14.5c4.6,0,7.9-2.2,9.5-5h0.1v3.3c0,7.6-4.1,10.4-9.6,10.4c-3.7,0-6.7-1.1-8.7-2.4l-1.3,4.2
		c2.4,1.6,6.3,2.5,9.9,2.5c3.7,0,7.9-0.9,10.9-3.6c2.8-2.6,4.2-6.8,4.2-13.6v-17.3c0-3.6,0.1-6,0.3-8.1h-4.8L233.5,412z"/>
	<path class="st1" d="M275.4,419.6c0-10.2-6.4-12.7-10.5-12.7c-4.9,0-8.4,2.8-9.8,5.5h-0.1l-0.3-4.9h-9.4v3.3l4.8,0.4
		c0.1,1.3,0.1,2.7,0.1,4.3v17.9l0,0l-4.8,0.5v3.3h15v-3.3l-4.8-0.5h0v-14.1c0-0.9,0.1-1.8,0.4-2.5c1-3,3.8-5.5,7.3-5.5
		c5.1,0,6.9,4,6.9,8.8v13.3l-4.8,0.5v3.3h14.9v-3.3l-4.8-0.5V419.6z"/>
	<polygon class="st1" points="193.4,407.5 193.4,410.9 198.1,411.3 198.1,437.3 203.5,437.3 203.5,407.5 	"/>
	<path class="st1" d="M130.5,433.5c0-1.4-0.1-2.8-0.1-4.4v-21.6h-10.2v3.3l4.7,0.5v14.4c0,1.1-0.2,2-0.5,2.8c-1,2.5-3.5,5-7.1,5
		c-4.9,0-6.6-3.9-6.6-9.5v-16.4h-10.2v3.3l4.7,0.5v13.6c0,10.4,5.6,13,10.3,13c5.3,0,8.5-3.1,9.8-5.5h0.1l0.3,4.9h0.2h4h0.6h3.6
		v-3.3L130.5,433.5z"/>
	<path class="st1" d="M281.3,401.2v-2.3h1.4c1.1,0,1.7,0.3,1.7,1.1c0,0.9-0.6,1.2-1.6,1.2H281.3z M285.6,400c0-1.5-1-2.3-2.8-2.3
		H280v7.5h1.3v-3h1.3l1.7,3h1.4l-1.8-3.1C284.9,401.9,285.6,401.2,285.6,400 M282.6,407.4c-3.2,0-5.8-2.6-5.8-5.8
		c0-3.2,2.6-5.8,5.8-5.8c3.2,0,5.8,2.6,5.8,5.8C288.4,404.8,285.8,407.4,282.6,407.4 M282.6,394.4c-3.9,0-7.1,3.2-7.1,7.1
		s3.2,7.1,7.1,7.1c3.9,0,7.1-3.2,7.1-7.1S286.5,394.4,282.6,394.4"/>
	<rect x="20.4" y="176.6" class="st0" width="290.5" height="290.5"/>
	<path class="st1" d="M65.4,433.6c-3.9,0-7.1-2.6-8.1-6.3c-0.2-0.6-0.2-1.3-0.2-2v-5.3c0-0.9,0.1-1.6,0.3-2.3
		c1.1-4.1,4.5-6.6,8.2-6.6c5.8,0,8.9,5.1,8.9,11.1C74.4,429.1,71.1,433.6,65.4,433.6 M67.3,406.9c-4.8,0-8.2,2.1-10.1,5.4H57v-18.7
		h-0.1l0.1-0.1H46.8v3.3l4.8,0.4l0,0c0,0,0,34.9-0.1,36.2h0l-4.8,0.4v3.3H56h0.1l0.3-4.9h0.1c2.3,3.9,5.7,5.5,10,5.5
		c6.6,0,13.4-5.3,13.4-15.9C79.9,413.1,74.7,406.9,67.3,406.9"/>
	<polygon class="st1" points="93.7,393.7 93.7,393.7 83.6,393.7 83.6,397 88.3,397.4 88.3,433.5 88.3,433.5 83.5,433.9 83.5,437.3 
		98.5,437.3 98.5,433.9 93.7,433.5 	"/>
	<path class="st1" d="M159.1,419.5h-15.8c0.4-3.7,2.8-8.7,8.3-8.7C157.6,410.8,159.1,416.1,159.1,419.5 M152,406.9
		c-8.7,0-14,7-14,16c0,9,5.5,15.1,14.6,15.1c4.7,0,8.1-1,9.9-1.9l-1-3.9c-2,0.9-4.4,1.5-8.2,1.5c-5.5,0-10.1-3-10.2-10.3h20.9
		c0.1-0.6,0.2-1.4,0.2-2.5C164.3,415.4,161.7,406.9,152,406.9"/>
	<path class="st1" d="M181.4,420.1c-3.9-1.5-5.6-2.6-5.6-5.1c0-2.2,1.7-4.1,4.9-4.1c2.8,0,4.9,1,6.1,1.8l1.3-3.9
		c-1.6-1-4.2-1.8-7.3-1.8c-6.3,0-10.3,3.9-10.3,8.7c0,3.6,2.5,6.5,7.9,8.4c3.9,1.5,5.5,2.8,5.5,5.4c0,2.5-1.8,4.4-5.7,4.4
		c-2.7,0-5.5-1.1-7.2-2.1l-1.3,4.1c2.1,1.2,5.1,2.1,8.4,2.1c6.9,0,11.1-3.7,11.1-9C189.2,424.6,186.5,422,181.4,420.1"/>
	<path class="st1" d="M200.8,395.8c-2,0-3.4,1.5-3.4,3.4s1.3,3.3,3.3,3.3c2.2,0,3.4-1.5,3.4-3.3
		C204.2,397.3,202.8,395.8,200.8,395.8"/>
	<path class="st1" d="M232.9,424.6c0,0.9-0.1,2-0.4,2.9c-1.1,3.4-4.1,5.5-7.5,5.5c-5.8,0-8.8-4.9-8.8-10.7c0-6.9,3.7-11.2,8.8-11.2
		c4,0,6.6,2.6,7.6,5.8c0.2,0.7,0.3,1.5,0.3,2.4V424.6z M233.5,412h-0.1c-1.4-2.5-4.1-5.1-9.3-5.1c-6.9,0-13.5,5.7-13.5,15.7
		c0,8.2,5.3,14.5,12.7,14.5c4.6,0,7.9-2.2,9.5-5h0.1v3.3c0,7.6-4.1,10.4-9.6,10.4c-3.7,0-6.7-1.1-8.7-2.4l-1.3,4.2
		c2.4,1.6,6.3,2.5,9.9,2.5c3.7,0,7.9-0.9,10.9-3.6c2.8-2.6,4.2-6.8,4.2-13.6v-17.3c0-3.6,0.1-6,0.3-8.1h-4.8L233.5,412z"/>
	<path class="st1" d="M275.4,419.6c0-10.2-6.4-12.7-10.5-12.7c-4.9,0-8.4,2.8-9.8,5.5h-0.1l-0.3-4.9h-9.4v3.3l4.8,0.4
		c0.1,1.3,0.1,2.7,0.1,4.3v17.9l0,0l-4.8,0.5v3.3h15v-3.3l-4.8-0.5h0v-14.1c0-0.9,0.1-1.8,0.4-2.5c1-3,3.8-5.5,7.3-5.5
		c5.1,0,6.9,4,6.9,8.8v13.3l-4.8,0.5v3.3h14.9v-3.3l-4.8-0.5V419.6z"/>
	<polygon class="st1" points="193.4,407.5 193.4,410.9 198.1,411.3 198.1,437.3 203.5,437.3 203.5,407.5 	"/>
	<path class="st1" d="M130.5,433.5c0-1.4-0.1-2.8-0.1-4.4v-21.6h-10.2v3.3l4.7,0.5v14.4c0,1.1-0.2,2-0.5,2.8c-1,2.5-3.5,5-7.1,5
		c-4.9,0-6.6-3.9-6.6-9.5v-16.4h-10.2v3.3l4.7,0.5v13.6c0,10.4,5.6,13,10.3,13c5.3,0,8.5-3.1,9.8-5.5h0.1l0.3,4.9h0.2h4h0.6h3.6
		v-3.3L130.5,433.5z"/>
	<path class="st1" d="M281.3,401.2v-2.3h1.4c1.1,0,1.7,0.3,1.7,1.1c0,0.9-0.6,1.2-1.6,1.2H281.3z M285.6,400c0-1.5-1-2.3-2.8-2.3
		H280v7.5h1.3v-3h1.3l1.7,3h1.4l-1.8-3.1C284.9,401.9,285.6,401.2,285.6,400 M282.6,407.4c-3.2,0-5.8-2.6-5.8-5.8
		c0-3.2,2.6-5.8,5.8-5.8c3.2,0,5.8,2.6,5.8,5.8C288.4,404.8,285.8,407.4,282.6,407.4 M282.6,394.4c-3.9,0-7.1,3.2-7.1,7.1
		s3.2,7.1,7.1,7.1c3.9,0,7.1-3.2,7.1-7.1S286.5,394.4,282.6,394.4"/>
	<path class="st0" d="M404.4,262.9c2,1.2,5.1,2.2,8.4,2.2c4,0,6.3-1.9,6.3-4.7c0-2.6-1.7-4.2-6.1-5.7c-5.7-2-9.4-5.1-9.4-10
		c0-5.7,4.7-9.9,12.3-9.9c3.7,0,6.5,0.8,8.3,1.7l-1.5,5.1c-1.3-0.7-3.7-1.6-6.9-1.6c-4,0-5.7,2.1-5.7,4.2c0,2.7,2,3.9,6.6,5.7
		c6,2.3,8.9,5.3,8.9,10.2c0,5.6-4.2,10.4-13.1,10.4c-3.7,0-7.5-1-9.4-2.2L404.4,262.9z"/>
	<path class="st0" d="M439.8,269.7v-14.4l-10.9-20.2h7.2l4.1,8.9c1.2,2.6,2.1,4.5,3,6.9h0.1c0.8-2.2,1.8-4.4,3-6.9l4.2-8.9h7.1
		l-11.5,20v14.6H439.8z"/>
	<path class="st0" d="M461.1,262.9c2,1.2,5.1,2.2,8.4,2.2c4,0,6.3-1.9,6.3-4.7c0-2.6-1.7-4.2-6.1-5.7c-5.7-2-9.4-5.1-9.4-10
		c0-5.7,4.7-9.9,12.3-9.9c3.7,0,6.5,0.8,8.3,1.7l-1.5,5.1c-1.3-0.7-3.7-1.6-6.9-1.6c-4,0-5.7,2.1-5.7,4.2c0,2.7,2,3.9,6.6,5.7
		c6,2.3,8.9,5.3,8.9,10.2c0,5.6-4.2,10.4-13.1,10.4c-3.7,0-7.5-1-9.4-2.2L461.1,262.9z"/>
	<polygon class="st0" points="495.4,240.5 485.6,240.5 485.6,235.2 511.7,235.2 511.7,240.5 501.7,240.5 501.7,269.7 495.4,269.7 	
		"/>
	<polygon class="st0" points="535.9,254.4 522.9,254.4 522.9,264.6 537.5,264.6 537.5,269.8 516.6,269.8 516.6,235.2 536.7,235.2 
		536.7,240.4 522.9,240.4 522.9,249.3 535.9,249.3 	"/>
	<path class="st0" d="M573.1,255.6c-0.2-4.5-0.5-9.8-0.4-14.5h-0.2c-1.1,4.2-2.6,8.9-4.1,13.2l-5.1,15h-4.8l-4.6-14.8
		c-1.3-4.4-2.6-9.1-3.5-13.4h-0.1c-0.2,4.5-0.4,10-0.6,14.7l-0.8,13.9h-5.9l2.3-34.6h8.3l4.5,13.9c1.2,4.1,2.3,8.2,3.2,12h0.2
		c0.9-3.7,2.1-8,3.4-12.1l4.8-13.8h8.2l2,34.6h-6.1L573.1,255.6z"/>
	<path class="st0" d="M382.2,303.9c0.8,0.3,1.8,0.3,3.1,0.3c4.7,0,7.6-2.4,7.6-6.4c0-3.8-2.7-5.8-7-5.8c-1.7,0-3,0.2-3.6,0.3V303.9z
		 M376,287.9c2.3-0.4,5.4-0.7,9.6-0.7c4.6,0,7.9,1,10.1,2.8c2.1,1.7,3.4,4.4,3.4,7.6c0,3.3-1,5.9-2.9,7.8c-2.6,2.5-6.5,3.7-10.9,3.7
		c-1.2,0-2.2-0.1-3.1-0.3V322H376V287.9z"/>
	<path class="st0" d="M419.5,307.4l-2.7-8.5c-0.7-2.1-1.2-4.5-1.7-6.5h-0.1c-0.5,2-1.1,4.4-1.6,6.5l-2.7,8.5H419.5z M409.6,312.2
		l-3,9.8h-6.5l11.1-34.6h8.1l11.2,34.6h-6.8l-3.1-9.8H409.6z"/>
	<path class="st0" d="M442.1,303.2h3.7c4.3,0,6.9-2.2,6.9-5.7c0-3.7-2.6-5.5-6.7-5.5c-2,0-3.3,0.2-3.9,0.3V303.2z M435.8,287.9
		c2.4-0.5,5.9-0.8,9.5-0.8c5,0,8.3,0.8,10.7,2.8c1.9,1.6,3,4,3,7c0,4.5-3,7.5-6.3,8.6v0.2c2.5,0.9,4,3.3,4.8,6.7
		c1.1,4.3,2,8.3,2.7,9.6h-6.5c-0.5-1-1.4-3.8-2.3-8.2c-1-4.5-2.6-5.9-6.2-6h-3.2V322h-6.3V287.9z"/>
	<polygon class="st0" points="472.8,292.7 463,292.7 463,287.4 489.1,287.4 489.1,292.7 479.1,292.7 479.1,322 472.8,322 	"/>
	<path class="st0" d="M494,322v-34.6h7.2l8.9,14.8c2.2,3.8,4.3,7.8,5.9,11.6h0.1c-0.5-4.6-0.6-9.1-0.6-14.4v-12.1h5.8V322h-6.6
		l-9-15.2c-2.2-3.8-4.5-8-6.1-11.9l-0.2,0.1c0.3,4.5,0.4,9,0.4,14.7V322H494z"/>
	<polygon class="st0" points="549,306.7 536,306.7 536,316.8 550.6,316.8 550.6,322 529.7,322 529.7,287.4 549.8,287.4 549.8,292.6 
		536,292.6 536,301.5 549,301.5 	"/>
	<path class="st0" d="M563.4,303.2h3.7c4.3,0,6.9-2.2,6.9-5.7c0-3.7-2.6-5.5-6.7-5.5c-2,0-3.3,0.2-3.9,0.3V303.2z M557.2,287.9
		c2.4-0.5,5.9-0.8,9.5-0.8c5,0,8.3,0.8,10.7,2.8c1.9,1.6,3,4,3,7c0,4.5-3,7.5-6.3,8.6v0.2c2.5,0.9,4,3.3,4.8,6.7
		c1.1,4.3,2,8.3,2.7,9.6h-6.5c-0.5-1-1.4-3.8-2.3-8.2c-1-4.5-2.6-5.9-6.2-6h-3.2V322h-6.3V287.9z"/>
	<path class="st0" d="M348.8,448.1h252.6V195.5H348.8V448.1z M329.9,176.6h290.5v290.5H329.9V176.6z"/>
</g>
</svg>
