<?xml version="1.0" encoding="iso-8859-1"?>
<!-- Uploaded to: SVG Repo, www.svgrepo.com, Generator: SVG Repo Mixer Tools -->
<svg fill="#000000" height="800px" width="800px" version="1.1" id="Capa_1" xmlns="http://www.w3.org/2000/svg" xmlns:xlink="http://www.w3.org/1999/xlink" 
	 viewBox="0 0 511 511" xml:space="preserve">
<path d="M508.803,250.315l-19.991-19.991l19.991-19.991c2.929-2.929,2.929-7.678,0-10.606l-45.529-45.53
	c-1.406-1.407-3.314-2.197-5.303-2.197s-3.897,0.79-5.303,2.197l-19.932,19.932l-14.652-14.652l19.932-19.932
	c2.929-2.929,2.929-7.678,0-10.606l-46.741-46.741c-2.929-2.929-7.678-2.929-10.606,0l-19.991,19.991l-19.991-19.991l-3.873-3.873
	l19.991-19.991c2.929-2.929,2.929-7.678,0-10.606l-45.529-45.53C309.868,0.79,307.96,0,305.971,0s-3.897,0.79-5.303,2.197
	l-19.991,19.991L260.686,2.197C259.279,0.79,257.372,0,255.382,0s-3.897,0.79-5.303,2.197l-19.991,19.991L210.097,2.197
	C208.691,0.79,206.783,0,204.794,0s-3.897,0.79-5.303,2.197L179.5,22.188L159.509,2.197C158.103,0.79,156.195,0,154.206,0
	s-3.897,0.79-5.303,2.197l-19.991,19.991L108.921,2.197C107.515,0.79,105.607,0,103.618,0s-3.897,0.79-5.303,2.197L78.324,22.188
	L58.333,2.197C56.926,0.79,55.019,0,53.029,0s-3.897,0.79-5.303,2.197L2.197,47.727c-2.929,2.929-2.929,7.678,0,10.606
	l19.991,19.991L2.197,98.315c-2.929,2.929-2.929,7.678,0,10.606l19.991,19.991L2.197,148.903c-2.929,2.929-2.929,7.678,0,10.606
	L22.188,179.5L2.197,199.491c-2.929,2.929-2.929,7.678,0,10.606l19.991,19.991L2.197,250.08c-2.929,2.929-2.929,7.678,0,10.606
	l19.991,19.991L2.197,300.668c-2.929,2.929-2.929,7.678,0,10.606l45.529,45.529c1.464,1.465,3.384,2.197,5.303,2.197
	s3.839-0.732,5.303-2.197l19.991-19.99l3.873,3.873l19.991,19.991l-19.991,19.991c-2.929,2.929-2.929,7.678,0,10.606l46.688,46.688
	c1.406,1.407,3.314,2.197,5.303,2.197s3.897-0.79,5.303-2.197l19.991-19.991l14.705,14.705l-19.991,19.991
	c-2.929,2.929-2.929,7.678,0,10.606l45.529,45.529c2.929,2.93,7.678,2.929,10.606,0l19.991-19.991l19.991,19.991
	c2.929,2.929,7.678,2.929,10.606,0l19.991-19.991l19.991,19.991c2.929,2.929,7.678,2.929,10.606,0l19.991-19.991l19.991,19.991
	c2.929,2.93,7.678,2.929,10.606,0l19.991-19.991l19.991,19.991c1.464,1.464,3.384,2.197,5.303,2.197s3.839-0.732,5.303-2.197
	l19.991-19.991l19.991,19.991c2.929,2.929,7.678,2.929,10.606,0l20.183-20.183c0.018-0.017,0.035-0.034,0.052-0.052l25.294-25.294
	c2.929-2.929,2.929-7.678,0-10.606l-19.991-19.991l19.991-19.991c2.929-2.929,2.929-7.678,0-10.606l-19.991-19.991l19.991-19.991
	c2.929-2.929,2.929-7.678,0-10.606L488.813,331.5l19.991-19.991c2.929-2.929,2.929-7.678,0-10.606l-19.991-19.991l19.991-19.991
	C511.733,257.992,511.733,253.243,508.803,250.315z M159.545,346.143l-41.448-41.448c-0.224-0.224-0.461-0.424-0.704-0.614
	l-19.287-19.287l14.67-14.67l41.406,41.406c0.118,0.118,0.243,0.222,0.366,0.331l19.639,19.639L159.545,346.143z M159.483,295.617
	l-41.054-41.054c-0.108-0.123-0.213-0.249-0.331-0.366l-19.991-19.991l14.74-14.74l40.7,40.7c0.2,0.261,0.412,0.515,0.65,0.754
	l19.991,19.991L159.483,295.617z M159.552,244.96l-41.455-41.455c-0.239-0.239-0.494-0.451-0.755-0.652l-19.235-19.236l14.68-14.68
	l41.396,41.396c0.047,0.047,0.099,0.087,0.147,0.133l19.858,19.857L159.552,244.96z M159.493,194.43l-41.262-41.262
	c-0.046-0.048-0.086-0.1-0.133-0.147L98.107,133.03l12.158-12.158l61.393,61.393L159.493,194.43z M182.265,171.658l-61.394-61.394
	l12.158-12.158l19.991,19.991c0.02,0.02,0.042,0.037,0.062,0.056l41.343,41.343L182.265,171.658z M230.327,174.185l-61.394-61.394
	l14.685-14.685l19.991,19.991c0.116,0.116,0.241,0.221,0.363,0.329l41.057,41.056L230.327,174.185z M280.929,174.171l-61.394-61.394
	l14.671-14.671l19.991,19.991c0.188,0.188,0.385,0.362,0.59,0.528l40.844,40.844L280.929,174.171z M331.531,174.157l-61.393-61.393
	l14.657-14.657l19.991,19.991c0.219,0.219,0.455,0.418,0.697,0.607l40.75,40.75L331.531,174.157z M382.133,174.143L320.74,112.75
	l14.643-14.643l19.991,19.991c0.252,0.252,0.524,0.477,0.806,0.688l40.656,40.656L382.133,174.143z M385.971,98.107l36.135,36.135
	l-14.629,14.629l-36.135-36.135L385.971,98.107z M73.021,320.903l-19.991,19.991l-34.923-34.923l19.991-19.991
	c2.929-2.929,2.929-7.678,0-10.606l-19.991-19.991l19.991-19.991c2.929-2.929,2.929-7.678,0-10.606l-19.991-19.991l19.991-19.991
	c2.929-2.929,2.929-7.678,0-10.606l-19.991-19.991l19.991-19.991c2.929-2.929,2.929-7.678,0-10.606l-19.991-19.991l19.991-19.991
	c2.929-2.929,2.929-7.678,0-10.606L18.107,53.03l34.923-34.923l19.991,19.991c1.406,1.407,3.314,2.197,5.303,2.197
	s3.897-0.79,5.303-2.197l19.991-19.991l19.991,19.991c1.406,1.407,3.314,2.197,5.303,2.197s3.897-0.79,5.303-2.197l19.991-19.991
	l19.991,19.991c1.406,1.407,3.314,2.197,5.303,2.197s3.897-0.79,5.303-2.197l19.991-19.991l19.991,19.991
	c1.406,1.407,3.314,2.197,5.303,2.197s3.897-0.79,5.303-2.197l19.991-19.991l19.991,19.991c1.406,1.407,3.314,2.197,5.303,2.197
	s3.897-0.79,5.303-2.197l19.991-19.991l34.923,34.923l-19.991,19.991c-2.929,2.929-2.929,7.678,0,10.606l3.873,3.873l-14.688,14.688
	l-19.991-19.991C288.691,80.79,286.783,80,284.794,80s-3.897,0.79-5.303,2.197L259.5,102.188l-19.991-19.991
	C238.103,80.79,236.195,80,234.206,80s-3.897,0.79-5.303,2.197l-19.991,19.991l-19.991-19.991C187.515,80.79,185.607,80,183.618,80
	s-3.897,0.79-5.303,2.197l-19.991,19.991l-19.991-19.991C136.926,80.79,135.019,80,133.029,80s-3.897,0.79-5.303,2.197
	l-45.529,45.53c-2.929,2.929-2.929,7.678,0,10.606l19.991,19.991l-19.991,19.991c-2.929,2.929-2.929,7.678,0,10.606l19.991,19.991
	l-19.991,19.991c-2.929,2.929-2.929,7.678,0,10.606l19.991,19.991l-19.991,19.991c-2.929,2.929-2.929,7.678,0,10.606l19.991,19.991
	L87.5,324.776l-3.873-3.873c-1.406-1.407-3.314-2.197-5.303-2.197S74.427,319.496,73.021,320.903z M98.107,335.383l14.733-14.733
	l40.744,40.744c0.19,0.243,0.39,0.48,0.614,0.704l19.991,19.991l-14.708,14.709l-40.991-40.991
	c-0.126-0.146-0.252-0.293-0.391-0.432L98.107,335.383z M134.189,422.053l-36.082-36.082l14.667-14.667l36.082,36.082
	L134.189,422.053z M472.903,275.609c-2.929,2.929-2.929,7.678,0,10.606l19.991,19.991l-19.991,19.991
	c-2.929,2.929-2.929,7.678,0,10.606l19.991,19.991l-19.991,19.991c-2.929,2.929-2.929,7.678,0,10.606l19.991,19.991l-19.991,19.991
	c-2.929,2.929-2.929,7.678,0,10.606l19.991,19.991l-14.889,14.89c-0.015,0.014-0.029,0.028-0.043,0.042l-19.991,19.991
	l-19.991-19.991c-1.464-1.464-3.384-2.197-5.303-2.197s-3.839,0.732-5.303,2.197l-19.991,19.991l-19.991-19.991
	c-2.929-2.929-7.678-2.929-10.606,0l-19.991,19.991l-19.991-19.991c-2.929-2.929-7.678-2.929-10.606,0l-19.991,19.991
	l-19.991-19.991c-2.929-2.929-7.678-2.929-10.606,0l-19.991,19.991l-19.991-19.991c-2.928-2.929-7.677-2.929-10.606,0
	l-19.991,19.991l-34.923-34.923l19.991-19.991c2.929-2.929,2.929-7.678,0-10.606l-19.991-19.991l19.991-19.991
	c2.929-2.929,2.929-7.678,0-10.606l-19.991-19.991l19.991-19.991c2.929-2.929,2.929-7.678,0-10.606l-19.991-19.991l19.991-19.991
	c2.929-2.929,2.929-7.678,0-10.606l-19.991-19.991l19.991-19.991c2.929-2.929,2.929-7.678,0-10.606l-19.991-19.991l34.923-34.923
	l19.991,19.991c1.406,1.407,3.314,2.197,5.303,2.197s3.897-0.79,5.303-2.197l19.991-19.991l19.991,19.991
	c1.406,1.407,3.314,2.197,5.303,2.197s3.897-0.79,5.303-2.197l19.991-19.991l19.991,19.991c1.406,1.407,3.314,2.197,5.303,2.197
	s3.897-0.79,5.303-2.197l19.991-19.991l19.991,19.991c1.406,1.407,3.314,2.197,5.303,2.197s3.897-0.79,5.303-2.197l19.991-19.991
	l19.991,19.991c1.406,1.407,3.314,2.197,5.303,2.197s3.897-0.79,5.303-2.197l19.991-19.991l34.923,34.923l-19.991,19.991
	c-2.929,2.929-2.929,7.678,0,10.606l19.991,19.991L472.903,275.609z"/>
</svg>