<?xml version='1.0' encoding='iso-8859-1'?>
<!-- Uploaded to: SVG Repo, www.svgrepo.com, Generator: SVG Repo Mixer Tools -->
<svg fill="#000000" height="800px" width="800px" version="1.1" xmlns="http://www.w3.org/2000/svg" viewBox="0 0 363.636 363.636" xmlns:xlink="http://www.w3.org/1999/xlink" enable-background="new 0 0 363.636 363.636">
  <g>
    <path d="m266.496,58.023l-168.911-20.974c-3.369-0.388-6.784-0.584-10.149-0.584-48.212,7.10543e-15-87.436,39.291-87.436,87.585v1.814c0,32.661 17.943,61.2 44.47,76.257l23.358,94.426c2.583,10.444 9.08,19.258 18.292,24.816 6.362,3.839 13.492,5.808 20.736,5.808 3.246-0.001 6.515-0.396 9.747-1.195l.642-.159c10.444-2.583 19.258-9.079 24.816-18.291 5.558-9.213 7.197-20.038 4.613-30.482l-16.865-68.179 136.687-16.973c3.756-0.466 6.576-3.657 6.576-7.442v-118.984c-0.001-3.785-2.821-6.977-6.576-7.443zm-134.384,222.622c1.622,6.556 0.593,13.35-2.895,19.131-3.489,5.782-9.02,9.859-15.576,11.48l-.642,.159c-6.553,1.623-13.348,0.594-19.13-2.896-5.781-3.488-9.858-9.02-11.479-15.574l-20.617-83.348c8.119,2.502 16.737,3.852 25.664,3.852 3.366,0 6.781-0.196 10.216-0.593l17.165-2.131 17.294,69.92zm125.959-102.823l-162.201,20.141c-2.802,0.322-5.64,0.486-8.435,0.486-39.94,2.84217e-14-72.435-32.561-72.435-72.585v-1.814c0-40.023 32.495-72.585 72.436-72.585 2.795,0 5.633,0.164 8.368,0.478l162.268,20.149v105.73z"/>
    <path d="m41.906,124.957c0,27.507 22.378,49.886 49.886,49.886s49.886-22.379 49.886-49.886-22.379-49.886-49.886-49.886-49.886,22.379-49.886,49.886zm84.772,0c0,19.236-15.65,34.886-34.886,34.886-19.236,0-34.886-15.649-34.886-34.886s15.65-34.886 34.886-34.886c19.236,0 34.886,15.65 34.886,34.886z"/>
    <path d="m291.146,101.29c4.36,0 6.46,2.347 10.426,7.229 4.378,5.39 10.375,12.771 22.069,12.771s17.69-7.381 22.069-12.771c3.966-4.883 6.066-7.229 10.426-7.229 4.142,0 7.5-3.357 7.5-7.5s-3.358-7.5-7.5-7.5c-11.694,0-17.69,7.381-22.069,12.771-3.966,4.883-6.066,7.229-10.426,7.229s-6.46-2.347-10.426-7.229c-4.378-5.39-10.375-12.771-22.068-12.771-4.142,0-7.5,3.357-7.5,7.5s3.357,7.5 7.499,7.5z"/>
    <path d="m356.136,131.593c-11.694,0-17.69,7.381-22.069,12.771-3.966,4.883-6.066,7.229-10.426,7.229s-6.46-2.347-10.426-7.229c-4.378-5.39-10.375-12.771-22.068-12.771-4.142,0-7.5,3.357-7.5,7.5s3.358,7.5 7.5,7.5c4.36,0 6.46,2.347 10.426,7.229 4.378,5.39 10.375,12.771 22.069,12.771s17.69-7.381 22.069-12.771c3.966-4.883 6.066-7.229 10.426-7.229 4.142,0 7.5-3.357 7.5-7.5s-3.359-7.5-7.501-7.5z"/>
  </g>
</svg>