<?xml version="1.0" encoding="utf-8"?>
<!-- Generator: Adobe Illustrator 26.4.1, SVG Export Plug-In . SVG Version: 6.00 Build 0)  -->
<svg version="1.0" id="katman_1" xmlns="http://www.w3.org/2000/svg" xmlns:xlink="http://www.w3.org/1999/xlink" x="0px" y="0px"
	 viewBox="0 0 841.89 595.28" style="enable-background:new 0 0 841.89 595.28;" xml:space="preserve">
<style type="text/css">
	.st0{fill:#2A5D4D;}
</style>
<g>
	<path class="st0" d="M410.55,434.74c0,1.83,0.52,4,1.92,5.48h-22.72c1.4-1.48,1.92-3.65,1.92-5.48v-48.19c0-1.83-0.52-4-1.92-5.48
		h38.81v17.66c-2.27-1.13-5.16-1.3-7.78-1.3h-10.31v6.26h6.12c1.84,0,3.85-0.43,5.51-1.13v15.83c-1.66-0.78-3.67-1.13-5.51-1.13
		h-6.12v17.48H410.55z"/>
	<path class="st0" d="M459.24,422.74c6.21,0,11.28-4.96,11.28-12.18c0-7.13-5.07-12.18-11.28-12.18s-11.27,4.96-11.27,12.18
		S453.04,422.74,459.24,422.74z M489.4,410.57c0,16.7-13.02,30.96-30.15,30.96c-17.13,0-30.15-14.18-30.15-30.96
		c0-16.7,13.02-30.96,30.15-30.96C476.29,379.69,489.4,393.87,489.4,410.57z"/>
	<path class="st0" d="M511.75,407.61c3.06,0,7.08-1.04,7.08-5.48c0-4.44-4.02-5.48-7.08-5.48V407.61z M492.96,379.69
		c1.31,1.13,3.15,1.91,5.33,1.91c3.58,0,7.61-1.91,14.34-1.91c12.85,0,23.33,7.22,23.33,20.87c0,4.61-2.1,9.48-5.24,12.96
		c6.64,3.39,11.89,11.48,11.89,21.22c0,1.83,0.52,4,1.92,5.48H521.8c1.4-1.48,1.92-3.65,1.92-5.48c0-4.78-5.33-10.44-11.89-11.83
		v11.83c0,1.83,0.52,4,1.92,5.48h-22.73c1.4-1.48,1.92-3.65,1.92-5.48V379.69z"/>
	<path class="st0" d="M582.92,440.22h-36.88c1.4-1.48,1.92-3.65,1.92-5.48v-48.19c0-1.83-0.52-4-1.92-5.48h36.88v17.83
		c-2.62-1.13-6.03-1.57-9-1.57h-7.95v6.26h4.28c2.18,0,4.37-0.26,6.55-1.13v15.83c-2.18-0.96-4.37-1.13-6.55-1.13h-4.28v6.87h7.95
		c2.97,0,6.47-0.43,9-1.57V440.22z"/>
	<path class="st0" d="M608.15,440.23l-19.93-54.62c-0.7-1.74-1.92-3.22-3.23-4.61h24.03c-0.44,0.96-0.61,2.09-0.61,3.13
		c0,1.48,0.79,3.57,1.22,5.31L617.5,417h0.18l8.39-27.57c0.52-1.74,1.4-3.65,1.4-5.39c0-0.87-0.26-2.17-0.96-2.61V381h24.21
		c-2.18,2.09-3.14,5.04-4.37,8.26l-16.52,44.62c-0.35,0.96-0.88,2.7-0.88,3.65c0,1.3,0.88,2,1.84,2.7H608.15z"/>
	<path class="st0" d="M688.41,440.22h-36.88c1.4-1.48,1.92-3.65,1.92-5.48v-48.19c0-1.83-0.52-4-1.92-5.48h36.88v17.83
		c-2.62-1.13-6.03-1.57-9-1.57h-7.95v6.26h4.28c2.18,0,4.37-0.26,6.55-1.13v15.83c-2.18-0.96-4.37-1.13-6.55-1.13h-4.28v6.87h7.95
		c2.97,0,6.47-0.43,9-1.57V440.22z"/>
	<path class="st0" d="M713.32,407.61c3.06,0,7.08-1.04,7.08-5.48c0-4.44-4.02-5.48-7.08-5.48V407.61z M694.44,379.69
		c1.31,1.13,3.15,1.91,5.33,1.91c3.58,0,7.61-1.91,14.33-1.91c12.85,0,23.34,7.22,23.34,20.87c0,4.61-2.1,9.48-5.25,12.96
		c6.65,3.39,11.89,11.48,11.89,21.22c0,1.83,0.52,4,1.92,5.48h-22.73c1.4-1.48,1.92-3.65,1.92-5.48c0-4.78-5.33-10.44-11.89-11.83
		v11.83c0,1.83,0.52,4,1.92,5.48h-22.73c1.4-1.48,1.92-3.65,1.92-5.48V379.69z"/>
	<path class="st0" d="M236.71,153.19c-58.38,0-79.01,90.29-98.24,162.91c-6.9-6.96-28.32-28.18-28.32-28.18
		c-4.28-4.26-9.26-2.87-12.24,0.09c-3.06,3.04-3.5,8.61,0,12c0.17,0.17,28.93,28.7,38.89,38.62c2.71,2.7,6.73,4.26,10.66,1.91
		c4.11-2.52,4.72-6.96,4.81-6.96c34.09-151.95,64.59-163.35,84.34-163.35c16.61,0,35.83,12.26,35.83,36.71
		c24.82,0,40.38,32.44,20.36,52.36c16.61,7.92,23.95,17.74,23.95,30.18c0,12.44-10.49,25.05-25.7,25.05
		c-15.12,0-22.81-9.65-34.61-9.65c-5.33,0-8.57,4.26-8.57,8.52v30.7h-22.2v-30.53c0-4.78-3.58-8.52-8.04-8.52
		c-0.09,0-1.92,0.09-1.84,0.09l-29.8,3.65c-3.58,0.52-6.9,4.35-6.9,8.44c0,4.7,3.85,8.61,9.18,8.52c0.61,0,1.57,0,1.49-0.09
		c-0.09,0,18.88-2.44,18.88-2.44v30.27c0,3.83,4.37,7.57,8.3,7.57h39.59c4.63,0,8.57-3.91,8.57-8.61V324.8
		c8.3,5.04,19.84,6.96,25.7,6.96c22.2,0,43.44-17.4,43.26-42.79c-0.09-23.14-17.83-34.62-17.83-34.62
		c10.4-27.57-6.38-54.28-28.23-61.67C280.06,164.24,255.58,153.19,236.71,153.19z"/>
	<path class="st0" d="M211.8,394.91c0,7.13,8.04,11.48,21.24,17.66c10.49,4.87,16.52,10,16.52,14.18c0,6.7-7.25,9.05-14.07,9.05
		c-10.49,0-16.69-4.17-20.1-13.48l-0.26-0.78h-0.87c-1.84,0-3.32,0.09-4.2,1.13c-0.7,0.96-0.52,2.17-0.17,3.39l2.27,9.57
		c0.61,2.35,1.49,2.7,5.24,3.48c1.66,0.26,10.14,1.74,17.31,1.74c20.1,0,29.02-8.09,29.02-16.18c0-5.83-5.86-11.48-18.44-17.74
		l-5.77-2.7c-8.65-4.09-13.81-6.52-13.81-10.79c0-4.17,5.33-7.05,13.11-7.05c10.05,0,12.76,5.57,13.98,10.44l0.26,0.96h0.96
		c2.27,0,3.67-0.17,4.46-1.13c0.52-0.52,0.7-1.22,0.61-2l-0.79-8.35c-0.26-2.7-2.27-3.04-5.07-3.57c-3.41-0.61-7.43-1.3-13.55-1.3
		C222.2,381.34,211.8,386.39,211.8,394.91z"/>
	<path class="st0" d="M269.57,411.7c0,14.44,12.59,29.05,36.71,29.05c12.15,0,19.05-2.78,24.12-5.48l1.4-0.78l-2.27-2.44l0.09,0.09
		c-0.52-0.78-0.96-0.87-1.75-0.87l-1.14,0.43c-1.84,0.87-7.43,3.39-17.57,3.39c-12.5,0-25.87-8.09-25.87-25.92
		c0-16.96,14.6-22.96,27.01-22.96c9,0,13.72,3.22,14.6,9.74l0.17,1.04h1.14c1.05,0,3.85,0,3.85-2.09v-9.92
		c0-2.44-2.8-2.78-4.02-2.96l-1.14-0.17c-2.88-0.43-5.59-0.7-12.85-0.7C287.48,381.34,269.57,394.13,269.57,411.7z"/>
	<path class="st0" d="M178.67,382.04l-21.76,0.17l-14.42-0.26l-2.19-0.09c-1.31,0-2.19,0.96-2.19,2.26c0,0.61,0,2.52,2.36,2.52
		c8.74,0,9.09,0.7,9.18,4.09l0.09,2.09l0.17,8.87v19.14c0,3.22-0.09,8.26-0.35,12.26c-0.09,1.13-0.17,2.26-7.87,2.26
		c-2.19,0-3.5,0.43-3.5,2.52c0,0.61,0,2.26,2.1,2.26h0.52c0.96-0.09,3.41-0.17,15.47-0.17c12.85,0,15.47,0.17,16.34,0.17h0.44
		c1.66,0,3.15-0.17,3.15-2.26c0-2.35-2.01-2.52-5.24-2.52c-7.78,0-7.78-1.13-7.87-2.26c-0.17-3.74-0.35-8.79-0.35-12.35v-6.87h6.47
		c9.96,0,11.1,0.26,12.5,7.92c0.35,1.65,1.75,1.83,2.88,1.83c2.36,0,2.62-1.3,2.62-1.83l-0.17-2.87c-0.17-1.65-0.35-3.74-0.35-6.44
		v-11.74c0-1.74-2.1-1.74-3.23-1.74c-1.92,0-2.36,1.22-3.5,6.78c-0.52,2.09-4.63,3.3-11.27,3.3h-5.94v-17.22
		c0-4.7,0.87-4.7,1.84-4.78c3.85-0.17,13.02-0.52,15.82-0.52c2.62,0,5.07,0.61,6.64,1.65c4.89,3.04,7.43,5.13,9,6.35
		c1.49,1.22,2.36,1.91,3.58,1.91c0.7,0,2.8,0,2.8-1.83c0-0.43-0.17-0.87-0.87-2.35c-0.79-1.74-2.18-4.7-3.85-9.13
		c-0.44-1.39-2.1-1.39-5.16-1.39L178.67,382.04z"/>
	<path class="st0" d="M410.55,288.54c0,1.83,0.52,4,1.92,5.48h-22.72c1.4-1.48,1.92-3.65,1.92-5.48v-48.19c0-1.83-0.52-4-1.92-5.48
		h38.81v17.66c-2.27-1.13-5.16-1.3-7.78-1.3h-10.31v6.26h6.12c1.84,0,3.85-0.43,5.51-1.13v15.83c-1.66-0.78-3.67-1.13-5.51-1.13
		h-6.12v17.48H410.55z"/>
	<path class="st0" d="M459.24,276.62c6.21,0,11.28-4.96,11.28-12.18c0-7.13-5.07-12.18-11.28-12.18s-11.27,4.96-11.27,12.18
		C447.97,271.57,453.04,276.62,459.24,276.62z M489.4,264.44c0,16.7-13.02,30.88-30.15,30.88c-17.13,0-30.15-14.18-30.15-30.88
		c0-16.7,13.02-30.97,30.15-30.97C476.29,233.56,489.4,247.74,489.4,264.44z"/>
	<path class="st0" d="M511.75,261.48c3.06,0,7.08-1.04,7.08-5.48c0-4.44-4.02-5.48-7.08-5.48V261.48z M492.96,233.56
		c1.31,1.13,3.15,1.91,5.33,1.91c3.58,0,7.61-1.91,14.34-1.91c12.85,0,23.33,7.22,23.33,20.88c0,4.61-2.1,9.48-5.24,12.96
		c6.64,3.39,11.89,11.48,11.89,21.22c0,1.83,0.52,4,1.92,5.48H521.8c1.4-1.48,1.92-3.65,1.92-5.48c0-4.78-5.33-10.44-11.89-11.83
		v11.83c0,1.83,0.52,4,1.92,5.48h-22.73c1.4-1.48,1.92-3.65,1.92-5.48V233.56z"/>
	<path class="st0" d="M582.92,294.01h-36.88c1.4-1.48,1.92-3.65,1.92-5.48v-48.19c0-1.83-0.52-4-1.92-5.48h36.88v17.92
		c-2.62-1.13-6.03-1.57-9-1.57h-7.95v6.26h4.28c2.18,0,4.37-0.26,6.55-1.13v15.83c-2.18-0.96-4.37-1.13-6.55-1.13h-4.28v6.87h7.95
		c2.97,0,6.47-0.43,9-1.57V294.01z"/>
	<path class="st0" d="M588.93,270.7c3.5,4.09,8.57,9.22,14.24,9.22c2.1,0,4.55-1.39,4.55-3.83c0-3.83-4.81-5.91-9.7-9.22
		c-4.89-3.22-9.79-7.74-9.79-16c0-12.09,8.39-17.31,19.75-17.31c3.23,0,6.99,1.74,8.3,1.74c1.31,0,2.54-0.17,3.41-1.04v19.4
		c-1.22-2.52-5.07-6.61-8.22-6.61c-3.06,0-4.37,0.96-4.37,3.13c0,3.31,4.81,5.04,9.79,8.35c4.81,3.22,9.7,8,9.7,17.57
		c0,13.05-9.79,19.4-21.93,19.4c-4.02,0-7.87-1.74-10.93-1.74c-1.84,0-3.23,0.35-4.72,1.04V270.7H588.93z"/>
	<path class="st0" d="M624.77,234.87h41.25v17.48c-1.66-0.87-4.11-1.13-6.2-1.13h-4.98v37.4c0,1.83,0.52,4,1.92,5.48h-22.73
		c1.4-1.48,1.92-3.65,1.92-5.48v-37.4h-4.98c-2.1,0-4.54,0.35-6.21,1.13V234.87z"/>
	<path class="st0" d="M670.91,270.7c3.5,4.09,8.57,9.22,14.25,9.22c2.1,0,4.54-1.39,4.54-3.83c0-3.83-4.81-5.91-9.7-9.22
		c-4.89-3.22-9.79-7.74-9.79-16c0-12.09,8.48-17.31,19.75-17.31c3.23,0,6.99,1.74,8.3,1.74c1.31,0,2.54-0.17,3.41-1.04v19.4
		c-1.22-2.52-5.07-6.61-8.21-6.61c-3.06,0-4.37,0.96-4.37,3.13c0,3.31,4.81,5.04,9.79,8.35c4.81,3.22,9.7,8,9.7,17.57
		c0,13.05-9.79,19.4-21.94,19.4c-4.02,0-7.87-1.74-10.93-1.74c-1.84,0-3.23,0.35-4.72,1.04V270.7H670.91z"/>
	<path class="st0" d="M410.55,361.59c0,1.83,0.52,4,1.92,5.48h-22.72c1.4-1.48,1.92-3.65,1.92-5.48v-48.19c0-1.83-0.52-4-1.92-5.48
		h38.81v17.66c-2.27-1.13-5.16-1.3-7.78-1.3h-10.31v6.26h6.12c1.84,0,3.85-0.43,5.51-1.13v15.83c-1.66-0.78-3.67-1.13-5.51-1.13
		h-6.12v17.48H410.55z"/>
	<path class="st0" d="M459.24,349.68c6.21,0,11.28-4.96,11.28-12.18c0-7.13-5.07-12.18-11.28-12.18s-11.27,4.96-11.27,12.18
		C447.97,344.63,453.04,349.68,459.24,349.68z M489.4,337.5c0,16.7-13.02,30.88-30.15,30.88c-17.13,0-30.15-14.18-30.15-30.88
		c0-16.7,13.02-30.96,30.15-30.96C476.29,306.62,489.4,320.8,489.4,337.5z"/>
	<path class="st0" d="M511.75,334.54c3.06,0,7.08-1.04,7.08-5.48c0-4.44-4.02-5.48-7.08-5.48V334.54z M492.96,306.62
		c1.31,1.13,3.15,1.91,5.33,1.91c3.58,0,7.61-1.91,14.34-1.91c12.85,0,23.33,7.22,23.33,20.88c0,4.61-2.1,9.48-5.24,12.96
		c6.64,3.39,11.89,11.48,11.89,21.22c0,1.83,0.52,4,1.92,5.48H521.8c1.4-1.48,1.92-3.65,1.92-5.48c0-4.78-5.33-10.44-11.89-11.83
		v11.83c0,1.83,0.52,4,1.92,5.48h-22.73c1.4-1.48,1.92-3.65,1.92-5.48V306.62z"/>
	<path class="st0" d="M603.78,344.98l-3.93-18.18h-0.35l-3.76,18.18H603.78z M609.55,307.93l19.84,54.01
		c0.87,2.26,2.1,3.83,3.41,5.13h-24.03c0.44-0.96,0.61-2.09,0.61-3.13c0-1.83-0.7-3.57-1.22-5.31h-16.34
		c-0.96,1.48-1.4,3.65-1.4,5.39c0,0.87,0.26,2.17,0.96,2.7v0.43h-24.21c2.18-2.09,3.14-5.04,4.37-8.26l16.52-44.62
		c0.35-0.96,0.88-2.7,0.88-3.65c0-1.3-0.88-2-1.84-2.7H609.55z"/>
	<path class="st0" d="M655.35,350.8h5.25c2.62,0,5.51-0.17,7.78-1.3v17.66h-33.82c1.4-1.48,1.92-3.65,1.92-5.48v-48.19
		c0-1.83-0.53-4-1.92-5.48h22.72c-1.4,1.48-1.92,3.65-1.92,5.48V350.8z"/>
	<path class="st0" d="M692.52,350.8h5.24c2.62,0,5.51-0.17,7.78-1.3v17.66h-33.82c1.4-1.48,1.92-3.65,1.92-5.48v-48.19
		c0-1.83-0.52-4-1.92-5.48h22.72c-1.4,1.48-1.92,3.65-1.92,5.48V350.8z"/>
	<path class="st0" d="M730.36,214.68c-7.95,0-14.33,6.44-14.33,14.35s6.38,14.26,14.33,14.26s14.42-6.35,14.42-14.26
		S738.32,214.68,730.36,214.68z M730.36,240.86c-6.55,0-11.89-5.31-11.89-11.83c0-6.52,5.33-11.83,11.89-11.83
		c6.64,0,11.89,5.31,11.89,11.83C742.25,235.56,736.92,240.86,730.36,240.86z"/>
	<path class="st0" d="M736.73,236.87l-2.62-4.87c-0.61-1.04-1.14-1.74-1.66-2.09c0.96-0.43,1.66-1.04,2.18-1.83
		c0.53-0.87,0.79-1.74,0.79-2.7c0-0.7-0.18-1.57-0.52-2.26c-0.44-0.61-0.87-1.22-1.57-1.57c-0.61-0.35-1.58-0.52-2.8-0.52h-5.15v16
		h2.8v-6.61h1.66c0.09,0,0.35,0.09,1.14,1.48l0.52,0.96l2.1,4.09l0.09,0.09h3.15L736.73,236.87z M729.74,228.43h-1.66v-5.39h1.84
		c0.88,0,1.49,0.17,1.84,0.35c0.35,0.26,0.61,0.52,0.79,0.87c0.18,0.43,0.26,0.78,0.26,1.22c0,0.7-0.26,1.39-0.7,2
		C731.58,228.08,730.88,228.43,729.74,228.43z"/>
</g>
</svg>
