<?xml version='1.0' encoding='iso-8859-1'?>
<!-- Uploaded to: SVG Repo, www.svgrepo.com, Generator: SVG Repo Mixer Tools -->
<svg fill="#000000" height="800px" width="800px" version="1.1" xmlns="http://www.w3.org/2000/svg" viewBox="0 0 366.891 366.891" xmlns:xlink="http://www.w3.org/1999/xlink" enable-background="new 0 0 366.891 366.891">
  <g>
    <g>
      <path d="m322.618,149.858l-5.361,38.766c-9.527,1.936-15.74,6.12-20.608,9.406-5.385,3.635-8.636,5.829-16.561,5.829-7.925,0-11.176-2.194-16.561-5.829-6.553-4.423-15.528-10.48-31.767-10.48-16.238,0-25.212,6.058-31.765,10.481-5.384,3.635-8.634,5.829-16.557,5.829-7.923,0-11.173-2.193-16.557-5.829-6.553-4.423-15.528-10.481-31.766-10.481-16.239,0-25.213,6.058-31.765,10.481-5.384,3.635-8.634,5.829-16.556,5.829s-11.171-2.193-16.555-5.829c-4.868-3.286-11.079-7.469-20.606-9.406l-5.361-38.766-29.717,4.109 24.041,173.824c2.75,22.301 21.734,39.099 44.22,39.099h201.26c22.485,0 41.47-16.798 44.22-39.099l24.041-173.824-29.719-4.11z"/>
      <path d="m64.153,96.296h17.208v73.182c2.075,1.273 3.879,2.484 5.432,3.532 8.143-5.495 23.146-15.461 48.32-15.461 25.181,0 40.185,9.971 48.324,15.462 8.146-5.496 23.149-15.462 48.323-15.462 25.187,0 40.193,9.976 48.328,15.464 1.555-1.049 3.361-2.261 5.44-3.536v-73.181h17.209c13.113,0 23.781-10.669 23.781-23.782v-48.732c-0.001-13.113-10.669-23.782-23.782-23.782h-58.859l-1.445,2.496c-12.151,21.005-34.754,34.053-58.988,34.053s-46.837-13.048-58.988-34.053l-1.445-2.496h-58.858c-13.113,0-23.782,10.669-23.782,23.782v48.731c0,13.114 10.669,23.783 23.782,23.783z"/>
    </g>
  </g>
</svg>