<?xml version="1.0" encoding="iso-8859-1"?>
<!-- Uploaded to: SVG Repo, www.svgrepo.com, Generator: SVG Repo Mixer Tools -->
<!DOCTYPE svg PUBLIC "-//W3C//DTD SVG 1.1//EN" "http://www.w3.org/Graphics/SVG/1.1/DTD/svg11.dtd">
<svg fill="#000000" height="800px" width="800px" version="1.1" id="Capa_1" xmlns="http://www.w3.org/2000/svg" xmlns:xlink="http://www.w3.org/1999/xlink" 
	 viewBox="0 0 400.019 400.019" xml:space="preserve">
<path d="M399.496,288.753l-20.945-98.186l-16.63-86.088c-1.363-7.057-7.54-12.155-14.728-12.155H179.87c-8.284,0-15,6.716-15,15
	c0,8.284,6.716,15,15,15h154.943l9.481,49.082h-172.8c-46.01,0-90.047,19.915-127.351,57.591
	c-27.643,27.92-41.924,55.735-42.519,56.906c-2.361,4.65-2.139,10.193,0.59,14.638c2.728,4.445,7.568,7.154,12.784,7.154h370
	c0.005-0.001,0.013-0.001,0.02,0c8.285,0,15-6.716,15-15C400.019,291.331,399.838,290.009,399.496,288.753z M42.196,277.695
	c6.047-8.396,14.033-18.342,23.874-28.202c31.847-31.908,67.317-48.087,105.425-48.087h178.692l16.275,76.289H42.196z"/>
</svg>