<?xml version="1.0" encoding="utf-8"?>
<!-- Generator: Adobe Illustrator 24.3.0, SVG Export Plug-In . SVG Version: 6.00 Build 0)  -->
<svg version="1.0" id="katman_1" xmlns="http://www.w3.org/2000/svg" xmlns:xlink="http://www.w3.org/1999/xlink" x="0px" y="0px"
	 viewBox="0 0 841.89 595.28" style="enable-background:new 0 0 841.89 595.28;" xml:space="preserve">
<style type="text/css">
	.st0{fill:#050607;}
	.st1{fill:#0DAD8D;}
	.st2{fill:#FFFFFF;}
</style>
<g>
	<path class="st0" d="M242.22,474.24c2.01,1.61,3.94,2.73,5.71,3.38c1.77,0.64,3.62,1.04,5.55,1.04c2.33,0,4.18-0.56,5.55-1.61
		c1.37-1.04,2.09-2.57,2.09-4.5c-0.08-1.61-0.48-2.81-1.29-3.78c-0.8-0.96-1.93-1.69-3.21-2.33c-1.37-0.64-2.81-1.21-4.42-1.69
		c-1.45-0.48-2.89-0.96-4.34-1.61s-2.81-1.37-4.02-2.33c-1.21-0.96-2.17-2.17-2.89-3.7c-0.72-1.53-1.13-3.38-1.13-5.55
		c0-2.73,0.72-5.14,2.09-7.15c1.45-2.01,3.38-3.54,5.79-4.58c2.49-1.04,5.22-1.61,8.28-1.61c2.33,0,4.66,0.32,6.91,0.88
		c2.25,0.64,3.86,1.37,4.98,2.17c1.29,0.72,1.93,1.77,1.93,3.05c0,0.56-0.24,1.37-0.72,2.25c-0.48,0.96-1.13,1.85-2.01,2.65
		c-1.45-1.13-3.05-2.09-4.82-2.73c-1.85-0.72-3.62-1.04-5.3-1.04c-2.25,0-4.02,0.48-5.3,1.37s-2.01,2.17-2.01,3.86
		c0,0.88,0.24,1.69,0.64,2.41c0.4,0.72,1.13,1.45,2.17,2.01c0.96,0.64,2.89,1.45,5.55,2.41c1.45,0.56,2.89,1.13,4.42,1.77
		c1.53,0.64,2.89,1.45,4.1,2.41c1.21,0.96,2.25,2.17,2.97,3.7c0.8,1.45,1.13,3.29,1.13,5.55c0,4.66-1.53,8.28-4.58,10.93
		c-3.05,2.65-7.23,3.94-12.46,3.94c-2.41,0-4.74-0.24-6.91-0.72c-2.17-0.48-3.94-1.21-5.46-2.01c-1.29-0.88-1.93-1.85-1.93-2.97
		C239.25,478.82,240.29,476.81,242.22,474.24"/>
	<path class="st0" d="M292.21,446.76H277.9c-0.16-0.8-0.24-1.69-0.24-2.73c0-1.53,0.48-2.65,1.53-3.54s2.41-1.37,4.26-1.37h31.99
		c0.16,0.96,0.24,1.93,0.24,2.89c0,1.45-0.48,2.57-1.45,3.46c-0.96,0.8-2.33,1.29-4.1,1.29h-8.6v38.01h-9.4v-38.01H292.21z"/>
	<path class="st0" d="M338.42,447.4l-6.19,19.37h12.22L338.42,447.4z M350.07,484.77l-3.86-11.17h-15.75l-3.78,11.17h-9.24
		l15.83-44.93c1.45-0.64,3.3-0.96,5.46-0.96c3.38,0,5.46,1.45,6.43,4.26l14.63,41.63H350.07z"/>
	<path class="st0" d="M407.22,484.77h-7.88l-19.37-29.98v29.98h-8.92v-45.49c1.21-0.24,2.57-0.4,4.18-0.4
		c1.29,0,2.41,0.24,3.21,0.64c0.8,0.4,1.61,1.21,2.33,2.41l17.6,28.69v-31.34c1.37-0.24,2.41-0.32,3.05-0.32
		c3.94,0,5.87,1.77,5.87,5.3L407.22,484.77z"/>
	<path class="st0" d="M450.77,461.3c0-5.14-1.13-9-3.3-11.57c-2.17-2.49-5.46-3.78-9.97-3.78c-1.29,0-2.65,0.08-4.1,0.24v31.34h3.78
		c4.66,0,8.12-1.29,10.29-3.86C449.73,471.11,450.77,467.01,450.77,461.3 M460.34,461.14c0,4.82-0.88,9-2.65,12.62
		c-1.77,3.62-4.26,6.27-7.55,8.2c-3.21,1.85-7.07,2.81-11.57,2.81h-14.47V439.6c4.26-0.56,8.52-0.8,12.78-0.8
		c7.8,0,13.58,1.85,17.52,5.63C458.33,448.12,460.34,453.75,460.34,461.14"/>
	<path class="st0" d="M488.87,447.4l-6.19,19.37h12.22L488.87,447.4z M500.52,484.77l-3.86-11.17h-15.75l-3.78,11.17h-9.24
		l15.83-44.93c1.45-0.64,3.3-0.96,5.46-0.96c3.38,0,5.46,1.45,6.43,4.26l14.63,41.63H500.52z"/>
	<path class="st0" d="M542.39,453.11c0-2.65-0.64-4.58-2.01-5.87c-1.37-1.29-3.46-1.93-6.35-1.93c-0.8,0-1.53,0-2.09,0.08
		c-0.56,0.08-1.13,0.08-1.53,0.16v15.75h3.21c2.81,0,4.98-0.72,6.51-2.09C541.67,457.77,542.39,455.68,542.39,453.11 M552.2,452.22
		c0,3.21-0.72,6.03-2.25,8.28c-1.53,2.33-3.62,3.94-6.35,4.98l11.25,18.81c-1.77,0.8-3.62,1.13-5.46,1.13
		c-1.69,0-3.05-0.4-4.26-1.13c-1.13-0.72-2.17-1.93-3.13-3.54l-7.72-13.18h-3.78v17.12h-9.4v-45.33c3.94-0.48,7.96-0.64,12.06-0.64
		c6.51,0,11.25,1.13,14.39,3.3C550.67,444.18,552.2,447.64,552.2,452.22"/>
	<path class="st0" d="M593.75,461.3c0-5.14-1.13-9-3.3-11.57c-2.17-2.49-5.47-3.78-9.97-3.78c-1.29,0-2.65,0.08-4.1,0.24v31.34h3.78
		c4.66,0,8.12-1.29,10.29-3.86C592.62,471.11,593.75,467.01,593.75,461.3 M603.23,461.14c0,4.82-0.88,9-2.65,12.62
		c-1.77,3.62-4.26,6.27-7.55,8.2c-3.21,1.85-7.07,2.81-11.57,2.81h-14.47V439.6c4.26-0.56,8.52-0.8,12.78-0.8
		c7.8,0,13.58,1.85,17.52,5.63C601.3,448.12,603.23,453.75,603.23,461.14"/>
	<path class="st0" d="M378.44,553.16v-34.48l-8.92,4.5c-1.85-2.41-2.81-4.34-2.81-5.55c0-1.29,0.72-2.33,2.17-3.05l9.64-5.06
		c0.88-0.48,1.77-0.88,2.65-1.21c0.8-0.32,1.69-0.48,2.65-0.48c1.45,0,2.65,0.4,3.78,1.13v44.2H378.44z"/>
	<path class="st0" d="M426.83,530.82c0-5.46-0.56-9.56-1.77-12.22c-1.21-2.65-3.13-3.94-5.71-3.94c-2.57,0-4.58,1.29-5.79,3.94
		c-1.21,2.65-1.85,6.67-1.85,12.22c0,5.55,0.64,9.4,1.85,12.06c1.21,2.65,3.13,3.94,5.79,3.94c2.65,0,4.5-1.29,5.71-3.86
		C426.26,540.38,426.83,536.29,426.83,530.82 M436.07,530.82c0,7.72-1.45,13.5-4.26,17.44c-2.81,3.94-6.99,5.87-12.54,5.87
		c-5.55,0-9.89-1.93-12.7-5.79c-2.81-3.86-4.18-9.72-4.18-17.52c0-7.8,1.45-13.26,4.42-17.36c2.97-4.1,7.15-6.11,12.7-6.11
		c5.55,0,9.64,1.93,12.38,5.79C434.7,517,436.07,522.86,436.07,530.82"/>
	<path class="st0" d="M472.39,530.82c0-5.46-0.56-9.56-1.77-12.22c-1.21-2.65-3.13-3.94-5.71-3.94s-4.58,1.29-5.79,3.94
		c-1.21,2.65-1.85,6.67-1.85,12.22c0,5.55,0.64,9.4,1.85,12.06c1.21,2.65,3.13,3.94,5.79,3.94s4.5-1.29,5.71-3.86
		C471.83,540.38,472.39,536.29,472.39,530.82 M481.56,530.82c0,7.72-1.45,13.5-4.26,17.44c-2.81,3.94-6.99,5.87-12.54,5.87
		c-5.55,0-9.89-1.93-12.7-5.79c-2.81-3.86-4.18-9.72-4.18-17.52c0-7.8,1.45-13.26,4.42-17.36c2.97-4.1,7.15-6.11,12.7-6.11
		c5.55,0,9.64,1.93,12.38,5.79C480.19,517,481.56,522.86,481.56,530.82"/>
	<path class="st1" d="M302.22,331.91c36.69,36.65,82.5,50.31,121.39,50.31c47.5,0,95.32-19.21,125.01-53.32
		c29.7-34.12,44.93-77.19,44.93-138.11V40.5H443.34c-62,0-101.58,18.93-122.64,32.99c-21.82,14.59-60.44,53.73-67.75,117.42
		C247.2,241.14,263.68,293.38,302.22,331.91"/>
	<path class="st2" d="M332.39,191.03c-2.61-4.02-3.9-9.6-3.9-16.8c0-7.19,1.29-12.58,3.9-16.39c2.61-3.82,6.43-5.75,11.41-5.75
		c4.98,0,8.4,1.93,10.93,5.75c2.49,3.82,3.78,9.32,3.78,16.39c0,7.07-1.29,12.86-3.86,16.84c-2.57,3.98-6.27,5.99-11.09,5.99
		S335.01,195.05,332.39,191.03 M364.18,198.46c4.94-5.87,7.39-13.98,7.39-24.31s-2.41-18.16-7.19-23.83
		c-4.78-5.67-11.61-8.52-20.49-8.52c-5.83,0-10.89,1.29-15.15,3.82c-4.26,2.57-7.59,6.31-9.93,11.29
		c-2.37,4.94-3.54,10.73-3.54,17.36c0,6.63,1.04,12.5,3.21,17.48c2.13,4.98,5.26,8.84,9.44,11.49c4.14,2.69,9.24,4.02,15.23,4.02
		c9.12,0,16.11-2.93,21.06-8.8"/>
	<path class="st2" d="M423.01,204.13c0-0.48,0.04-1.04,0.04-1.73c0-2.13-0.68-3.74-2.01-4.9c-1.33-1.17-3.21-1.73-5.71-1.73h-19.89
		v-17.28h19.69v-10.01h-19.69v-15.43h18.32c2.85,0,4.86-0.48,6.07-1.49c1.21-1,1.81-2.69,1.81-5.06c0-1.37-0.08-2.53-0.28-3.46
		h-38.74v62.65h40.22c0.04-0.56,0.12-1.08,0.16-1.53"/>
	<path class="st2" d="M444.67,173.87c0.24,3.17,1.77,6.59,4.54,10.21l13.66,17.76c2.49,3.25,5.79,4.86,9.93,4.86
		c2.49,0,4.94-0.72,7.35-2.17L457,173.03l20.53-27.57c-0.88-0.88-1.97-1.57-3.3-2.05c-1.33-0.48-2.73-0.76-4.22-0.76
		c-1.73,0-3.3,0.4-4.7,1.21s-2.77,2.09-4.14,3.82l-12.74,16.84c-1.25,1.61-2.17,3.05-2.73,4.34c-0.6,1.29-0.96,2.57-1.04,3.86
		v-22.82c0-4.86-2.77-7.31-8.28-7.31c-1,0-2.49,0.16-4.46,0.48v62.57h12.74v-31.79V173.87z"/>
	<path class="st2" d="M520.98,191.07c-2.57,3.98-6.27,5.99-11.09,5.99c-4.82,0-8.56-2.01-11.17-6.03c-2.61-4.02-3.9-9.6-3.9-16.8
		c0-7.19,1.29-12.58,3.9-16.39c2.61-3.82,6.43-5.75,11.41-5.75c4.98,0,8.4,1.93,10.93,5.75c2.49,3.82,3.78,9.32,3.78,16.39
		C524.83,181.3,523.55,187.09,520.98,191.07 M530.74,150.32c-4.82-5.67-11.65-8.52-20.49-8.52c-5.83,0-10.89,1.29-15.15,3.82
		c-4.26,2.57-7.59,6.31-9.97,11.25c-2.37,4.94-3.54,10.73-3.54,17.36c0,6.63,1.08,12.5,3.21,17.48c2.13,4.98,5.26,8.84,9.44,11.49
		c4.14,2.69,9.24,4.02,15.23,4.02c9.12,0,16.11-2.93,21.06-8.8c4.94-5.87,7.39-13.98,7.39-24.31s-2.41-18.16-7.19-23.83"/>
	<path class="st2" d="M515.67,256c-6.67,0-12.06-5.46-12.06-12.14c0-6.67,5.42-12.18,12.06-12.18s12.1,5.46,12.1,12.18
		C527.77,250.58,522.34,256,515.67,256 M515.67,228.04c-8.68,0-15.71,7.11-15.71,15.83c0,8.72,7.03,15.83,15.71,15.83
		c8.68,0,15.71-7.11,15.71-15.83C531.38,235.15,524.31,228.04,515.67,228.04"/>
	<path class="st2" d="M517.32,242.58c-0.52,0.44-1.29,0.68-2.21,0.68h-1.08v-5.38c0,0,0.28,0,0.52-0.04h0.72
		c0.88,0,1.57,0.2,2.09,0.6c0.48,0.4,0.76,1.08,0.76,2.05c0,0.96-0.28,1.65-0.8,2.13 M519.57,244.19c0.36-0.24,0.68-0.56,0.96-0.92
		c0.28-0.4,0.52-0.84,0.68-1.33s0.2-1.04,0.2-1.73c0-1.53-0.52-2.69-1.57-3.46c-1-0.76-2.65-1.13-4.9-1.13c-0.6,0-1.21,0-1.97,0.04
		c-0.72,0.04-1.41,0.12-2.13,0.16v15.47h3.21v-5.87h1.29l2.61,4.5c0.32,0.56,0.68,0.96,1.04,1.21c0.36,0.24,0.84,0.36,1.41,0.36
		c0.28,0,0.6-0.04,0.96-0.12c0.32-0.08,0.6-0.16,0.92-0.28l-3.82-6.43c0.4-0.12,0.76-0.32,1.08-0.56"/>
	<path class="st2" d="M346.9,228.44c-2.41,0-4.34,0.6-5.75,1.81c-1.41,1.21-2.13,2.85-2.13,4.9c0,1.37,0.08,2.61,0.28,3.74h19.41
		v52.2h12.82v-52.2h11.69c2.41,0,4.3-0.56,5.63-1.73c1.33-1.17,2.01-2.73,2.01-4.74c0-1.37-0.08-2.69-0.28-4.02H346.9V228.44z"/>
	<path class="st2" d="M431,281.2h-19.89v-17.32h19.69v-10.01h-19.69v-15.43h18.32c2.85,0,4.86-0.48,6.07-1.49
		c1.21-1,1.81-2.69,1.81-5.06c0-1.37-0.08-2.53-0.28-3.46h-38.74v62.65h40.22c0.04-0.56,0.12-1.08,0.12-1.53
		c0-0.48,0.04-1.04,0.04-1.73c0-2.13-0.68-3.78-2.01-4.9c-1.33-1.17-3.25-1.73-5.71-1.73"/>
	<path class="st2" d="M495.54,229.93c-2.37-1.25-4.62-1.85-6.79-1.85c-1.97,0-3.62,0.4-4.86,1.21c-1.29,0.8-2.53,2.29-3.78,4.38
		l-9.2,15.91l-9-16.92c-1.57-3.05-4.02-4.58-7.43-4.58c-2.29,0-4.98,0.68-8.08,2.05l16.35,29.74l-18.4,31.22h13.94l11.89-20.65
		l9.56,15.99c1.25,2.13,2.57,3.62,3.94,4.46c1.41,0.84,3.17,1.29,5.34,1.29c2.29,0,4.74-0.48,7.35-1.41l-18.12-31.34l17.28-29.45
		V229.93z"/>
</g>
</svg>
