<?xml version="1.0" encoding="utf-8"?>

<!DOCTYPE svg PUBLIC "-//W3C//DTD SVG 1.1//EN" "http://www.w3.org/Graphics/SVG/1.1/DTD/svg11.dtd">
<!-- Uploaded to: SVG Repo, www.svgrepo.com, Generator: SVG Repo Mixer Tools -->
<svg height="800px" width="800px" version="1.1" id="_x32_" xmlns="http://www.w3.org/2000/svg" xmlns:xlink="http://www.w3.org/1999/xlink" 
	 viewBox="0 0 512 512"  xml:space="preserve">
<style type="text/css">
	.st0{fill:#000000;}
</style>
<g>
	<path class="st0" d="M502.782,220.376c-12.362-13.474-35.405-10.614-50.8,0.776c-2.645,2.203-8.163,6.208-15.395,11.264
		c0.006-0.536,0.02-1.078,0.02-1.62c0.007-14.063-3.228-26.692-8.284-37.541c-3.79-8.143-8.578-15.315-13.762-21.569
		c-7.788-9.389-16.44-16.742-24.234-22.38c-3.838-2.759-7.46-5.11-10.682-7.072c0.757-3.723,1.118-7.507,1.118-11.284
		c-0.013-10.674-2.719-21.348-7.085-31.554c-3.281-7.654-7.52-15.054-12.476-21.971c-7.446-10.36-16.467-19.648-26.492-26.84
		c-5.022-3.596-10.299-6.663-15.804-9.034c-5.504-2.35-11.25-4.018-17.176-4.674l-0.248-0.027l0.254,0.034
		c-0.824-0.094-1.661-0.147-2.518-0.147c-2.056,0-4.319,0.314-6.548,1.165c-2.09,0.784-4.058,2.063-5.566,3.53
		c-1.42,1.366-2.451,2.832-3.221,4.192c-0.717,1.279-1.218,2.471-1.62,3.582c-0.75,2.083-1.179,3.898-1.594,5.626
		c-0.71,3.006-1.333,5.752-2.331,8.451c-0.75,2.016-1.681,3.984-3.007,5.993c-2.002,3-4.875,6.168-9.824,9.469
		c-4.949,3.281-12.02,6.636-22.139,9.529c-15.388,4.393-28.942,11.518-40.528,20.298c-17.384,13.178-30.355,29.994-39.067,47.264
		c-4.36,8.638-7.654,17.411-9.878,25.996c-2.23,8.584-3.388,16.969-3.388,24.918c0,2.343,0.101,4.654,0.308,6.917
		c-51.958,8.137-73.059,34.668-95.968,57.557l-49.776,43.48C1.855,317.516,0,321.567,0,325.866V470.33
		c0,1.915,1.125,3.683,2.886,4.48c1.754,0.804,3.817,0.529,5.283-0.756l96.176-82.447c3.388-2.88,7.922-4.092,12.288-3.315
		l149.881,27.248c10.46,1.901,21.208-0.496,29.906-6.63c0,0,191.3-133.02,205.416-144.779
		C515.298,251.776,515.157,233.856,502.782,220.376z M410.644,250.195c-31.595,21.369-69.028,45.972-69.028,45.972H224.621
		l-0.368,0.181c-6.16-0.208-10.982-5.378-10.801-11.532c0.228-6.16,5.404-10.989,11.532-10.775l-0.362-0.214
		c20.913,0,86.198,0,86.198,0c17.317,0,31.346-14.029,31.346-31.326c0-17.317-14.029-31.346-31.346-31.346
		c-15.676,0-47.003,0-125.352,0c-3.911,0-7.654,0.101-11.298,0.261c-0.134-1.48-0.228-3.013-0.228-4.667
		c-0.014-7.507,1.52-16.594,4.728-26.036c4.8-14.184,13.318-29.17,25.258-41.753c11.96-12.596,27.215-22.815,45.878-28.152
		c7.855-2.243,14.572-4.841,20.357-7.754c5.063-2.545,9.409-5.324,13.118-8.297c6.509-5.19,11.022-10.996,13.99-16.547
		c2.229-4.158,3.616-8.143,4.58-11.538c0.63-2.203,1.078-4.145,1.453-5.739c1.668,0.415,3.382,0.958,5.137,1.654
		c5.725,2.256,11.846,6.047,17.672,10.982c8.739,7.379,16.782,17.29,22.414,27.637c2.826,5.17,5.056,10.439,6.556,15.509
		c1.494,5.056,2.25,9.911,2.25,14.236c0,4.574-0.817,8.518-2.364,11.893c-3.214,6.991-7.266,12.048-11.753,16.018
		c-3.368,2.973-6.991,5.297-10.694,7.172c-5.552,2.812-11.244,4.546-16.165,5.759c-2.471,0.61-4.742,1.085-6.817,1.54
		c-1.044,0.235-2.042,0.456-3.054,0.717c-1.018,0.268-2.036,0.549-3.315,1.058l7.654,19.119l0.924,2.645l0.013,0.034l0.007-0.007
		c0.053-0.02,0.402-0.12,0.924-0.248c1.005-0.248,2.612-0.589,4.553-1.012c3.409-0.756,7.869-1.781,12.844-3.381
		c7.453-2.418,16.152-6.148,24.476-12.436c4.159-3.141,8.217-6.924,11.92-11.438c1.179-1.453,2.31-3.007,3.422-4.607
		c1.447,0.924,2.96,1.915,4.52,2.993c8.625,5.947,18.523,14.35,26.022,24.991c3.75,5.324,6.924,11.184,9.168,17.632
		c2.23,6.462,3.556,13.52,3.563,21.402C413.175,236.742,412.418,243.191,410.644,250.195z"/>
</g>
</svg>