<?xml version="1.0" encoding="iso-8859-1"?>
<!-- Uploaded to: SVG Repo, www.svgrepo.com, Generator: SVG Repo Mixer Tools -->
<!DOCTYPE svg PUBLIC "-//W3C//DTD SVG 1.1//EN" "http://www.w3.org/Graphics/SVG/1.1/DTD/svg11.dtd">
<svg fill="#000000" version="1.1" id="Capa_1" xmlns="http://www.w3.org/2000/svg" xmlns:xlink="http://www.w3.org/1999/xlink" 
	 width="800px" height="800px" viewBox="0 0 420 420" xml:space="preserve">
<g>
	<g>
		<path d="M379.709,151.004c6.405-15.926,5.895-33.502-1.635-49.253c-7.522-15.735-21.2-27.771-38.137-33.8
			c-3.856-16.621-14.462-31.082-29.854-40.392c-11.053-6.686-23.819-10.221-36.913-10.221c-4.922,0-9.809,0.496-14.602,1.476
			C245.785,6.786,228.531,0,210.25,0h-0.501c-18.28,0-35.536,6.786-48.32,18.814c-4.792-0.98-9.68-1.476-14.6-1.476
			c-13.096,0-25.859,3.535-36.914,10.221c-15.394,9.31-25.996,23.771-29.854,40.392c-16.935,6.029-30.614,18.065-38.137,33.8
			c-7.528,15.75-8.038,33.327-1.632,49.253c-10.614,13.799-15.003,30.906-12.1,47.97c2.9,17.057,12.756,32.03,27.427,42.014
			c-0.835,17.005,5.44,33.554,17.771,46.308c12.203,12.623,29.321,20.164,47.38,20.974c3.443,5.574,7.713,10.569,12.646,14.871
			v83.583c0,7.332,5.944,13.276,13.276,13.276c7.333,0,13.276-5.944,13.276-13.276v-69.278c0.79,0.226,1.577,0.453,2.377,0.652
			c5.751,1.437,11.659,2.164,17.561,2.164c12.087,0,19.74-2.968,30.093-8.628c10.352,5.66,18.006,8.628,30.094,8.628
			c5.902,0,11.81-0.729,17.56-2.164c0.801-0.199,1.59-0.427,2.378-0.652v69.278c0,7.332,5.943,13.276,13.274,13.276
			c7.333,0,13.277-5.944,13.277-13.276v-83.583c4.933-4.301,9.203-9.297,12.645-14.871c18.061-0.81,35.179-8.352,47.384-20.974
			c12.328-12.754,18.604-29.302,17.77-46.308c14.672-9.984,24.526-24.957,27.428-42.014
			C394.709,181.911,390.321,164.804,379.709,151.004z M370.604,195.369c-2.178,12.813-10.461,23.93-22.724,30.502l-6.832,3.659
			l1.312,7.639c2.185,12.726-1.901,25.547-11.212,35.177c-8.902,9.209-21.721,14.489-35.165,14.489
			c-0.857,0-1.727-0.022-2.583-0.065l-7.163-0.357l-3.083,6.477c-5.729,12.029-16.801,21.43-30.709,24.342
			c-20.154,4.223-39.766-5.26-42.304-6.549L210,310.607l-0.143,0.072c-2.538,1.291-22.147,10.771-42.303,6.551
			c-13.907-2.914-24.979-12.313-30.707-24.342l-3.083-6.478l-7.165,0.358c-0.855,0.043-1.725,0.064-2.584,0.064
			c-13.443,0-26.259-5.281-35.161-14.489c-9.312-9.63-13.398-22.452-11.214-35.177l1.312-7.639l-6.831-3.659
			c-12.263-6.572-20.545-17.689-22.724-30.502c-2.16-12.694,1.964-25.505,11.314-35.146l5.53-5.702l-3.822-6.962
			c-6.304-11.478-6.7-24.794-1.089-36.532c5.733-11.993,16.952-20.838,30.78-24.268l7.271-1.803l0.828-7.445
			c1.436-12.909,9.03-24.407,20.836-31.548c7.698-4.655,16.614-7.116,25.784-7.116c5.062,0,10.07,0.743,14.887,2.208l6.681,2.032
			l4.573-5.276c8.668-10,21.465-15.867,35.289-16.263v0.007c0.578-0.021,1.158-0.036,1.74-0.04c0.581,0.004,1.161,0.018,1.739,0.04
			l-0.001-0.007c13.828,0.395,26.622,6.262,35.291,16.263l4.572,5.276l6.683-2.032c4.816-1.465,9.826-2.208,14.888-2.208
			c9.171,0,18.086,2.461,25.783,7.116c11.807,7.141,19.4,18.639,20.836,31.548l0.829,7.445l7.27,1.803
			c13.827,3.43,25.048,12.275,30.781,24.268c5.611,11.738,5.214,25.054-1.09,36.532l-3.822,6.962l5.53,5.702
			C368.64,169.864,372.762,182.675,370.604,195.369z"/>
		<path d="M286.88,183.164c0.927-2.898,1.364-5.912,1.303-8.985c-0.159-7.479-3.276-14.463-8.775-19.663
			c-4.148-3.926-9.278-6.501-14.899-7.491c-4.797-9.596-14.836-15.732-25.905-15.732c-0.225,0-0.438,0.001-0.64,0.008
			c-1.926,0.04-3.835,0.264-5.69,0.669c-5.442-5.909-13.164-9.271-21.394-9.271l-0.435,0.004l-0.519-0.004
			c-8.216,0-15.934,3.363-21.382,9.271c-1.855-0.406-3.764-0.631-5.688-0.669c-11.346-0.26-21.65,5.936-26.542,15.725
			c-5.625,0.989-10.757,3.565-14.905,7.491c-5.497,5.204-8.611,12.187-8.77,19.663c-0.066,3.069,0.371,6.083,1.299,8.987
			c-11.836,5.919-22.727,16.333-29.401,28.194c-5.09,9.048-5.081,20.531,0.021,29.259c3.973,6.796,10.372,10.694,17.56,10.694
			c7.957,0,19.506-4.782,30.851-26.53c0.436,2.205,0.89,4.366,1.35,6.417c3.811,17.016,10.882,40.699,22.931,56.895
			c9.458,12.711,20.615,19.154,33.16,19.154c12.544,0,23.702-6.443,33.161-19.154c12.057-16.207,19.127-39.885,22.935-56.896
			c0.462-2.071,0.915-4.232,1.346-6.417c11.351,21.747,22.897,26.529,30.854,26.531c7.185,0,13.586-3.896,17.562-10.691
			c5.105-8.729,5.112-20.215,0.02-29.261C309.615,199.502,298.722,189.087,286.88,183.164z M131.42,227.256
			c-4.094,5.223-7.491,7.083-9.305,7.083c-1.301,0-2.301-1.243-2.909-2.284c-1.733-2.966-2.248-8.169,0.12-12.375
			c7.645-13.59,19.877-21.157,27.169-23.381C141.81,210.068,136.745,220.471,131.42,227.256z M268.422,182.001
			c0,0-3.914,5.624-14.164,4.187c2.188,9.146-6.837,73.199-27.517,95.671c-5.207,5.666-10.551,8.42-16.334,8.42
			c-5.776,0-11.119-2.754-16.336-8.42c-20.71-22.506-29.069-94.722-29.069-94.722s-15.396-0.304-15.396-12.596
			c0-6.064,5.455-10.993,11.874-10.993l7.542,0.278l1.597-6.796c1.197-5.081,6.076-8.766,11.599-8.766l0.279,0.004
			c1.9,0.039,3.714,0.492,5.389,1.345l7.504,3.832l3.881-7.479c2.017-3.883,6.114-6.294,10.692-6.294l0.444,0.007l0.459-0.008
			c4.573,0,8.666,2.412,10.679,6.295l3.885,7.479l7.498-3.83c1.683-0.855,3.497-1.309,5.4-1.348l0.273-0.004
			c5.525,0,10.401,3.685,11.593,8.765l1.6,6.796l6.999-0.262l0.546-0.015c6.416,0,11.744,4.931,11.875,10.992
			C271.271,177.262,270.278,179.913,268.422,182.001z M301.611,232.054c-0.609,1.044-1.611,2.286-2.911,2.286
			c-1.816,0-5.212-1.861-9.307-7.086c-5.32-6.781-10.387-17.184-15.074-30.953c7.294,2.225,19.522,9.791,27.17,23.383
			C303.856,223.886,303.343,229.089,301.611,232.054z"/>
	</g>
</g>
</svg>